<svg xmlns="http://www.w3.org/2000/svg" width="103.433" height="76.007" viewBox="0 0 103.433 76.007"><g transform="translate(-22.806 -15.428)"><rect width="103.433" height="9.96" transform="translate(22.806 71.516)" fill="#d1d3d4"/><g transform="translate(23.787 15.428)"><path d="M197.127,208h-4.953V194.9a9.534,9.534,0,0,1,3.244-7.615q3.24-2.788,9.386-2.788a16.788,16.788,0,0,1,5.151.733,11.3,11.3,0,0,1,3.874,2.076,8.61,8.61,0,0,1,2.409,3.259,10.9,10.9,0,0,1,.82,4.335V208h-4.952V193.663a7.49,7.49,0,0,0-.659-3.318,5.632,5.632,0,0,0-1.744-2.134,6.778,6.778,0,0,0-2.433-1.1,10.34,10.34,0,0,0-2.674-.277,9.663,9.663,0,0,0-2.677.3,6.812,6.812,0,0,0-2.4,1.127,5.814,5.814,0,0,0-1.732,2.113,7.331,7.331,0,0,0-.66,3.291Z" transform="translate(-162.17 -153.568)" fill="#70ad3a"/><path d="M226.351,159.242v25.7H221.4v-25.7H192.174l1.983-2.974h37.1l-1.982,2.974Z" transform="translate(-162.17 -130.503)" fill="#70ad3a"/><path d="M411.5,184.5V208h-4.955V184.5Z" transform="translate(-337.327 -153.568)" fill="#70ad3a"/><path d="M411.5,159.242h-4.955l1.984-2.974h4.953Z" transform="translate(-337.327 -130.503)" fill="#70ad3a"/><path d="M457.188,206.97H452.24V193.634a9.528,9.528,0,0,1,3.237-7.614q3.247-2.788,9.388-2.79a16.716,16.716,0,0,1,5.151.735,11.318,11.318,0,0,1,3.871,2.076A8.646,8.646,0,0,1,476.3,189.3a11,11,0,0,1,.813,4.333V206.97h-4.947V192.4a7.486,7.486,0,0,0-.663-3.319,5.623,5.623,0,0,0-1.739-2.133,6.791,6.791,0,0,0-2.432-1.1,10.468,10.468,0,0,0-2.673-.278,9.709,9.709,0,0,0-2.675.3,6.845,6.845,0,0,0-2.405,1.129,5.82,5.82,0,0,0-1.727,2.116,7.315,7.315,0,0,0-.662,3.29V206.97Z" transform="translate(-374.66 -152.532)" fill="#70ad3a"/><path d="M50.247,35.077C47.235,30.754,43.3,23.87,42.677,18.125a1.4,1.4,0,0,0,.948-1.3,1.529,1.529,0,0,0-3.048,0,1.409,1.409,0,0,0,.96,1.3c-.625,5.748-4.554,12.626-7.565,16.949-3.129,4.491-8.174,9.665-4.545,18.993s3.887,15.8,3.887,15.8h4.977C36.916,61,35.045,57.143,34.473,52.813c-.894-6.758,3.976-10.176,6.036-11.3a2.6,2.6,0,0,1-1.335-2.23,2.5,2.5,0,0,1,.568-1.575s1.938-16.729,2.307-19.9a1.018,1.018,0,0,1-1.015-.978,1.073,1.073,0,1,1,1.134.976c.37,3.166,2.307,19.9,2.307,19.9a2.506,2.506,0,0,1,.571,1.575,2.6,2.6,0,0,1-1.337,2.23c2.06,1.127,6.932,4.545,6.04,11.3-.577,4.33-2.444,8.183-3.82,17.052H50.9s.258-6.467,3.887-15.8S53.377,39.568,50.247,35.077Z" transform="translate(-28.166 -15.428)" fill="#70ad3a"/></g><g transform="translate(23.947 82.683)"><path d="M29.045,397.257v-5.751h1.327v2.256H32.2v-2.256h1.327v5.751H32.2v-2.606h-1.83v2.606Z" transform="translate(-29.045 -389.961)" fill="#70ad3a"/><path d="M58.651,390.358l1.616-5.751h1.793l1.63,5.751H62.25l-.354-1.446H60.36l-.344,1.446Zm3.185-6.232h-.582l-1.42-1.064h1.191Zm-1.267,3.924h1.136l-.573-2.413Z" transform="translate(-53.235 -383.062)" fill="#70ad3a"/><path d="M91.337,397.257v-5.751h1.374l1.867,4.022-.037-4.022H95.8v5.751H94.438l-1.881-4.029.037,4.029Z" transform="translate(-79.941 -389.961)" fill="#70ad3a"/><path d="M123.717,397.257v-5.751h1.327v2.256h1.83v-2.256H128.2v5.751h-1.327v-2.606h-1.83v2.606Z" transform="translate(-106.398 -389.961)" fill="#70ad3a"/><path d="M169.247,397.257v-4.8h-1.536v-.949h4.409v.949h-1.537v4.8Z" transform="translate(-142.343 -389.961)" fill="#70ad3a"/><path d="M196.962,397.257v-5.751h2.393a2.655,2.655,0,0,1,1.56.355,1.086,1.086,0,0,1,.358.461,1.753,1.753,0,0,1,.121.688,1.388,1.388,0,0,1-.252.882,1.091,1.091,0,0,1-.759.38,1.219,1.219,0,0,1,.735.428,1.357,1.357,0,0,1,.256.861v.075l.038.762a1.416,1.416,0,0,0,.026.281,1.068,1.068,0,0,0,.077.241.889.889,0,0,0,.261.336h-1.583a1.589,1.589,0,0,1-.084-.339c-.006-.055-.014-.138-.023-.251s-.014-.214-.014-.306l-.019-.6v-.154a.784.784,0,0,0-.268-.686,2.07,2.07,0,0,0-1.077-.188h-.457v2.525h-1.29Zm1.29-3.32h.768a1.3,1.3,0,0,0,.806-.188.825.825,0,0,0,.228-.666.678.678,0,0,0-.249-.6,1.66,1.66,0,0,0-.9-.173h-.657v1.627Z" transform="translate(-166.243 -389.961)" fill="#70ad3a"/><path d="M226.634,384.126h-.582l-1.42-1.064h1.192Zm-1.322,6.232v-5.751h1.336v5.751Z" transform="translate(-188.851 -383.062)" fill="#70ad3a"/><path d="M243.626,397.257v-5.751H245l1.867,4.022-.037-4.022h1.262v5.751h-1.364l-1.881-4.029.037,4.029Z" transform="translate(-204.371 -389.961)" fill="#70ad3a"/><path d="M276,397.257v-5.751h1.327v2.256h1.83v-2.256h1.327v5.751h-1.327v-2.606h-1.83v2.606Z" transform="translate(-230.825 -389.961)" fill="#70ad3a"/><path d="M322.823,397.257v-5.751h1.326v2.256h1.83v-2.256h1.327v5.751H325.98v-2.606h-1.83v2.606Z" transform="translate(-269.079 -389.961)" fill="#70ad3a"/><path d="M352.428,397.257l1.616-5.751h1.793l1.629,5.751h-1.438l-.354-1.446h-1.536l-.345,1.446Zm1.919-2.307h1.136l-.574-2.413Zm.088,3.764v-.886h1.024v.886Z" transform="translate(-293.268 -389.961)" fill="#70ad3a"/><path d="M385.118,397.257v-5.751h1.373l1.867,4.022-.037-4.022h1.261v5.751h-1.364l-1.881-4.029.038,4.029Z" transform="translate(-319.978 -389.961)" fill="#70ad3a"/><path d="M417.5,397.257v-5.751h1.327v2.256h1.83v-2.256h1.327v5.751h-1.327v-2.606h-1.83v2.606Z" transform="translate(-346.435 -389.961)" fill="#70ad3a"/><path d="M464.316,397.257v-5.751h2.319a2.43,2.43,0,0,1,1.527.381,1.154,1.154,0,0,1,.349.5,2.123,2.123,0,0,1,.117.749,1.561,1.561,0,0,1-.494,1.269,2.323,2.323,0,0,1-1.518.415h-.973v2.438Zm1.29-3.233h.559a1.467,1.467,0,0,0,.873-.2.8.8,0,0,0,.254-.67.812.812,0,0,0-.228-.662,1.475,1.475,0,0,0-.88-.185h-.577Z" transform="translate(-384.688 -389.961)" fill="#70ad3a"/><path d="M494.022,397.257v-5.751h1.327v2.256h1.83v-2.256h1.327v5.751h-1.327v-2.606h-1.83v2.606Z" transform="translate(-408.959 -389.961)" fill="#70ad3a"/><path d="M526.505,384.607h1.336v3.876a1.451,1.451,0,0,0,.2.9.906.906,0,0,0,.72.239.88.88,0,0,0,.707-.24,1.5,1.5,0,0,0,.2-.913v-3.862h1.318v3.969a3.235,3.235,0,0,1-.08.841,1.153,1.153,0,0,1-.275.474,1.8,1.8,0,0,1-.764.455,3.312,3.312,0,0,1-.516.112,4.688,4.688,0,0,1-.61.037,2.719,2.719,0,0,1-1.732-.426,1.861,1.861,0,0,1-.507-1.494Zm1.583-.481.81-1.064h1.192l-1.42,1.064Z" transform="translate(-435.5 -383.062)" fill="#70ad3a"/><path d="M561.14,394.594h1.3l0,.112,0,.112a1.922,1.922,0,0,1-.522,1.483,2.3,2.3,0,0,1-1.606.482,3.22,3.22,0,0,1-.882-.1,1.681,1.681,0,0,1-.631-.332,1.583,1.583,0,0,1-.511-.822,7.547,7.547,0,0,1-.151-1.822,9.217,9.217,0,0,1,.086-1.423,1.771,1.771,0,0,1,.277-.773,1.691,1.691,0,0,1,.717-.571,2.851,2.851,0,0,1,1.094-.179,2.3,2.3,0,0,1,1.588.457,1.9,1.9,0,0,1,.5,1.461h-1.294v-.138a1.09,1.09,0,0,0-.187-.7.7.7,0,0,0-.577-.229.679.679,0,0,0-.652.32,4.914,4.914,0,0,0-.177,1.753,5.952,5.952,0,0,0,.167,1.886.656.656,0,0,0,.652.34.7.7,0,0,0,.622-.263,1.865,1.865,0,0,0,.179-.973Z" transform="translate(-461.352 -389.348)" fill="#70ad3a"/></g><path d="M59.912,335.985h-1.48a.292.292,0,0,0-.2.063.475.475,0,0,0-.112.224h-.14v-1.422h.14a.46.46,0,0,0,.112.226.3.3,0,0,0,.2.06h2.845v.143a.465.465,0,0,0-.222.116.308.308,0,0,0-.063.21v1.253a.314.314,0,0,0,.061.21.448.448,0,0,0,.224.116v.112a6.584,6.584,0,0,1-3.311.993,3.792,3.792,0,0,1-2.371-.7,3.183,3.183,0,0,1-.127-4.8,3.881,3.881,0,0,1,2.591-.823,4.691,4.691,0,0,1,.968.1,6.625,6.625,0,0,1,1.034.324,1.356,1.356,0,0,0,.426.121.36.36,0,0,0,.216-.1l.123.067-.7,1.463L60,333.869a.508.508,0,0,0-.04-.213.591.591,0,0,0-.158-.158,2.349,2.349,0,0,0-.786-.351,3.64,3.64,0,0,0-.979-.145,2.3,2.3,0,0,0-1.559.537,2.028,2.028,0,0,0-.7,1.606,1.974,1.974,0,0,0,.681,1.561,2.4,2.4,0,0,0,1.643.546,4.146,4.146,0,0,0,.979-.116,3.159,3.159,0,0,0,.834-.318Z" transform="translate(-25.848 -258.632)" fill="#fff"/><path d="M183.449,336.169V338.2a.308.308,0,0,0,.064.208.419.419,0,0,0,.217.114v.143H181.86v-.143a.445.445,0,0,0,.22-.117.308.308,0,0,0,.061-.206v-5.172a.316.316,0,0,0-.061-.21.447.447,0,0,0-.22-.116v-.143h3.75a5.775,5.775,0,0,1,1.087.08,1.91,1.91,0,0,1,.7.282,1.414,1.414,0,0,1,.518.631,2.093,2.093,0,0,1,.162.823,1.656,1.656,0,0,1-1.629,1.749l1.164,1.687a3.794,3.794,0,0,0,.45.57.563.563,0,0,0,.349.141v.143h-2.169v-.143q.224-.036.224-.161a1.151,1.151,0,0,0-.206-.389l-1.212-1.8h-1.6Zm0-1.007h2.02a5.078,5.078,0,0,0,.632-.027.984.984,0,0,0,.338-.112.823.823,0,0,0,0-1.324.937.937,0,0,0-.336-.114,5.52,5.52,0,0,0-.635-.024h-2.02Z" transform="translate(-129.957 -259.111)" fill="#fff"/><path d="M291.753,331.968a3.481,3.481,0,0,1,2.486.863,3.047,3.047,0,0,1,.97,2.336,3.08,3.08,0,0,1-.466,1.637,3.224,3.224,0,0,1-2.982,1.485,3.463,3.463,0,0,1-2.472-.863,3,3,0,0,1-.746-1.1,3.228,3.228,0,0,1-.224-1.194,3.176,3.176,0,0,1,.461-1.678A3.252,3.252,0,0,1,291.753,331.968Zm0,1.033a2.04,2.04,0,0,0-1.427.519,2.125,2.125,0,0,0,1.436,3.731,2,2,0,0,0,1.95-1.275,2.21,2.21,0,0,0,.158-.823,2.063,2.063,0,0,0-.676-1.633A2.127,2.127,0,0,0,291.757,333Z" transform="translate(-216.94 -258.632)" fill="#fff"/><path d="M411.186,333.025v3.423a2.469,2.469,0,0,1-.351,1.454,3.1,3.1,0,0,1-2.613.868,4.2,4.2,0,0,1-2.191-.47,1.426,1.426,0,0,1-.615-.743,3.293,3.293,0,0,1-.167-1.109v-3.423a.315.315,0,0,0-.061-.21.449.449,0,0,0-.22-.116v-.143h1.875v.143a.427.427,0,0,0-.222.114.317.317,0,0,0-.064.213v3.047a3.868,3.868,0,0,0,.057.781.9.9,0,0,0,.215.423,2.51,2.51,0,0,0,2.885,0,.921.921,0,0,0,.211-.423,3.876,3.876,0,0,0,.057-.781v-3.047a.315.315,0,0,0-.061-.21.449.449,0,0,0-.22-.116v-.143h1.765v.143a.447.447,0,0,0-.219.116A.315.315,0,0,0,411.186,333.025Z" transform="translate(-312.249 -259.112)" fill="#fff"/><path d="M531.792,336.183V338.2a.307.307,0,0,0,.064.208.42.42,0,0,0,.217.114v.143H530.2v-.143a.445.445,0,0,0,.22-.117.307.307,0,0,0,.061-.206v-5.172a.315.315,0,0,0-.061-.21.448.448,0,0,0-.22-.116v-.143h3.741a4.761,4.761,0,0,1,1.038.09,1.806,1.806,0,0,1,.679.309,1.54,1.54,0,0,1,.474.6,1.978,1.978,0,0,1,.171.814,1.845,1.845,0,0,1-.325,1.083,1.527,1.527,0,0,1-.744.566,3.944,3.944,0,0,1-1.293.168Zm0-1.007h2a1.92,1.92,0,0,0,.839-.13.611.611,0,0,0,.248-.271.924.924,0,0,0,0-.814.613.613,0,0,0-.248-.27,1.9,1.9,0,0,0-.839-.13h-2Z" transform="translate(-414.573 -259.112)" fill="#fff"/></g></svg>