<svg xmlns="http://www.w3.org/2000/svg" width="166.073" height="123.207" viewBox="0 0 166.073 123.207"><g transform="translate(-23.884 -15.428)"><g transform="translate(23.884 15.428)"><path d="M200.2,222.6h-8.029V201.359q0-7.819,5.258-12.343t15.215-4.519A27.214,27.214,0,0,1,221,185.686a18.323,18.323,0,0,1,6.28,3.365,13.957,13.957,0,0,1,3.905,5.283,17.661,17.661,0,0,1,1.329,7.026V222.6h-8.027V199.355a12.141,12.141,0,0,0-1.068-5.379,9.129,9.129,0,0,0-2.828-3.459,10.986,10.986,0,0,0-3.945-1.785,16.758,16.758,0,0,0-4.334-.448,15.663,15.663,0,0,0-4.34.485,11.042,11.042,0,0,0-3.891,1.827,9.424,9.424,0,0,0-2.807,3.425,11.883,11.883,0,0,0-1.069,5.335Z" transform="translate(-143.539 -134.361)" fill="#fff"/><path d="M247.574,161.089v41.655h-8.023V161.089H192.174l3.214-4.821h60.141l-3.212,4.821Z" transform="translate(-143.539 -114.503)" fill="#fff"/><path d="M414.579,184.5V222.6h-8.031V184.5Z" transform="translate(-294.342 -134.361)" fill="#fff"/><path d="M414.579,161.089h-8.031l3.216-4.822h8.029Z" transform="translate(-294.342 -114.503)" fill="#fff"/><path d="M460.261,221.711H452.24V200.095q0-7.822,5.246-12.343,5.263-4.52,15.218-4.522a27.1,27.1,0,0,1,8.349,1.192,18.345,18.345,0,0,1,6.274,3.365,14.015,14.015,0,0,1,3.912,5.285,17.826,17.826,0,0,1,1.318,7.024v21.616h-8.019v-23.62a12.135,12.135,0,0,0-1.075-5.38,9.114,9.114,0,0,0-2.819-3.458,11.009,11.009,0,0,0-3.943-1.785,16.966,16.966,0,0,0-4.333-.451,15.737,15.737,0,0,0-4.337.482,11.1,11.1,0,0,0-3.9,1.829,9.434,9.434,0,0,0-2.8,3.429,11.857,11.857,0,0,0-1.074,5.333v23.62Z" transform="translate(-326.485 -133.47)" fill="#fff"/><path d="M63.958,47.279C59.077,40.27,52.7,29.113,51.688,19.8a2.275,2.275,0,0,0,1.537-2.1,2.479,2.479,0,0,0-4.941,0A2.283,2.283,0,0,0,49.84,19.8c-1.014,9.317-7.382,20.466-12.262,27.475-5.072,7.279-13.25,15.666-7.368,30.787s6.3,25.6,6.3,25.6h8.068c-2.23-14.376-5.262-20.623-6.19-27.642-1.449-10.954,6.445-16.5,9.785-18.322a4.213,4.213,0,0,1-2.164-3.615,4.06,4.06,0,0,1,.92-2.554s3.142-27.118,3.74-32.255A1.651,1.651,0,0,1,49.024,17.7a1.74,1.74,0,1,1,1.838,1.582c.6,5.131,3.74,32.257,3.74,32.257a4.062,4.062,0,0,1,.925,2.554,4.214,4.214,0,0,1-2.167,3.615c3.34,1.827,11.237,7.368,9.79,18.322-.936,7.019-3.961,13.265-6.192,27.642H65.02s.418-10.482,6.3-25.6S69.032,54.558,63.958,47.279Z" transform="translate(-28.166 -15.428)" fill="#fff"/></g><g transform="translate(24.145 124.447)"><path d="M29.045,400.829v-9.323H31.2v3.656h2.966v-3.656h2.151v9.323H34.162V396.6H31.2v4.225Z" transform="translate(-29.045 -389.002)" fill="#fff"/><path d="M58.651,394.889l2.619-9.323h2.906l2.642,9.323H64.485l-.573-2.343H61.421l-.558,2.343Zm5.163-10.1H62.87l-2.3-1.725H62.5Zm-2.053,6.361H63.6l-.929-3.912Z" transform="translate(-49.872 -383.062)" fill="#fff"/><path d="M91.337,400.829v-9.323h2.227l3.026,6.52-.061-6.52h2.046v9.323H96.363L93.314,394.3l.06,6.531Z" transform="translate(-72.865 -389.002)" fill="#fff"/><path d="M123.717,400.829v-9.323h2.15v3.656h2.966v-3.656h2.15v9.323h-2.15V396.6h-2.966v4.225Z" transform="translate(-95.643 -389.002)" fill="#fff"/><path d="M170.2,400.829v-7.785h-2.49v-1.537h7.147v1.537h-2.491v7.785Z" transform="translate(-126.591 -389.002)" fill="#fff"/><path d="M196.962,400.829v-9.323h3.879a4.3,4.3,0,0,1,2.529.576,1.761,1.761,0,0,1,.581.748,2.842,2.842,0,0,1,.2,1.116,2.251,2.251,0,0,1-.408,1.43,1.768,1.768,0,0,1-1.23.616,1.976,1.976,0,0,1,1.192.694,2.2,2.2,0,0,1,.415,1.4v.121l.061,1.235a2.293,2.293,0,0,0,.042.456,1.73,1.73,0,0,0,.124.391,1.441,1.441,0,0,0,.423.545H202.2a2.578,2.578,0,0,1-.136-.55c-.01-.09-.022-.224-.037-.407s-.023-.346-.023-.5l-.031-.973v-.249a1.27,1.27,0,0,0-.434-1.111,3.356,3.356,0,0,0-1.746-.305h-.74v4.092h-2.091Zm2.09-5.382H200.3a2.107,2.107,0,0,0,1.306-.3,1.337,1.337,0,0,0,.369-1.08,1.1,1.1,0,0,0-.4-.971,2.691,2.691,0,0,0-1.453-.281h-1.064v2.637Z" transform="translate(-147.168 -389.002)" fill="#fff"/><path d="M227.877,384.787h-.943l-2.3-1.725h1.932Zm-2.143,10.1v-9.323H227.9v9.323Z" transform="translate(-166.632 -383.062)" fill="#fff"/><path d="M243.626,400.829v-9.323h2.226l3.027,6.52-.061-6.52h2.046v9.323h-2.212L245.6,394.3l.06,6.531Z" transform="translate(-179.994 -389.002)" fill="#fff"/><path d="M276,400.829v-9.323h2.151v3.656h2.966v-3.656h2.151v9.323h-2.151V396.6h-2.966v4.225Z" transform="translate(-202.77 -389.002)" fill="#fff"/><path d="M322.823,400.829v-9.323h2.15v3.656h2.967v-3.656h2.152v9.323H327.94V396.6h-2.967v4.225Z" transform="translate(-235.706 -389.002)" fill="#fff"/><path d="M352.428,400.829l2.619-9.323h2.906l2.641,9.323h-2.331l-.574-2.343H355.2l-.559,2.343Zm3.111-3.74h1.841l-.93-3.912Zm.143,6.1v-1.436h1.66v1.436Z" transform="translate(-256.531 -389.002)" fill="#fff"/><path d="M385.118,400.829v-9.323h2.226l3.027,6.52-.06-6.52h2.044v9.323h-2.211l-3.049-6.531.061,6.531Z" transform="translate(-279.528 -389.002)" fill="#fff"/><path d="M417.5,400.829v-9.323h2.152v3.656h2.966v-3.656h2.152v9.323h-2.152V396.6H419.65v4.225Z" transform="translate(-302.306 -389.002)" fill="#fff"/><path d="M464.316,400.829v-9.323h3.758a3.939,3.939,0,0,1,2.476.618,1.869,1.869,0,0,1,.566.808,3.441,3.441,0,0,1,.189,1.214,2.53,2.53,0,0,1-.8,2.057,3.765,3.765,0,0,1-2.46.673h-1.577v3.952Zm2.091-5.241h.905a2.377,2.377,0,0,0,1.415-.318,1.291,1.291,0,0,0,.412-1.087,1.316,1.316,0,0,0-.37-1.074,2.39,2.39,0,0,0-1.427-.3h-.935Z" transform="translate(-335.24 -389.002)" fill="#fff"/><path d="M494.022,400.829v-9.323h2.151v3.656h2.966v-3.656h2.152v9.323h-2.152V396.6h-2.966v4.225Z" transform="translate(-356.137 -389.002)" fill="#fff"/><path d="M526.505,385.566h2.166v6.283a2.352,2.352,0,0,0,.328,1.46,1.469,1.469,0,0,0,1.167.387,1.426,1.426,0,0,0,1.146-.39,2.424,2.424,0,0,0,.325-1.48v-6.26h2.137V392a5.251,5.251,0,0,1-.129,1.363,1.869,1.869,0,0,1-.446.769,2.92,2.92,0,0,1-1.238.738,5.381,5.381,0,0,1-.837.182,7.588,7.588,0,0,1-.989.06,4.408,4.408,0,0,1-2.808-.69,3.018,3.018,0,0,1-.822-2.422Zm2.566-.779,1.313-1.725h1.932l-2.3,1.725Z" transform="translate(-378.987 -383.062)" fill="#fff"/><path d="M563,396.978h2.106l.007.181.008.181a3.116,3.116,0,0,1-.846,2.4,3.727,3.727,0,0,1-2.6.782,5.22,5.22,0,0,1-1.43-.17,2.726,2.726,0,0,1-1.023-.539,2.566,2.566,0,0,1-.828-1.332,12.229,12.229,0,0,1-.245-2.953,14.942,14.942,0,0,1,.139-2.306,2.871,2.871,0,0,1,.449-1.254,2.74,2.74,0,0,1,1.163-.925,4.619,4.619,0,0,1,1.773-.291,3.724,3.724,0,0,1,2.574.741,3.08,3.08,0,0,1,.808,2.369h-2.1v-.224a1.766,1.766,0,0,0-.3-1.131,1.136,1.136,0,0,0-.935-.37,1.1,1.1,0,0,0-1.057.518,7.967,7.967,0,0,0-.287,2.841,9.643,9.643,0,0,0,.271,3.057,1.064,1.064,0,0,0,1.057.551,1.133,1.133,0,0,0,1.008-.426,3.024,3.024,0,0,0,.291-1.577Z" transform="translate(-401.246 -388.474)" fill="#fff"/></g><path d="M63.31,338.48h-2.4a.474.474,0,0,0-.331.1.769.769,0,0,0-.182.362h-.227v-2.306H60.4a.745.745,0,0,0,.182.366.484.484,0,0,0,.331.1h4.612v.232a.755.755,0,0,0-.36.189.5.5,0,0,0-.1.341v2.031a.508.508,0,0,0,.1.341.725.725,0,0,0,.363.188v.181a10.672,10.672,0,0,1-5.367,1.61,6.147,6.147,0,0,1-3.844-1.139,5.16,5.16,0,0,1-.206-7.774,6.291,6.291,0,0,1,4.2-1.334,7.607,7.607,0,0,1,1.57.156,10.752,10.752,0,0,1,1.676.526,2.2,2.2,0,0,0,.69.2.583.583,0,0,0,.349-.167l.2.109-1.138,2.371-.207-.109a.823.823,0,0,0-.064-.345.958.958,0,0,0-.256-.257,3.808,3.808,0,0,0-1.274-.569,5.9,5.9,0,0,0-1.588-.236,3.72,3.72,0,0,0-2.527.87,3.288,3.288,0,0,0-1.132,2.6,3.2,3.2,0,0,0,1.1,2.53,3.9,3.9,0,0,0,2.663.885,6.722,6.722,0,0,0,1.587-.189,5.116,5.116,0,0,0,1.353-.515Z" transform="translate(-22.765 -222.673)" fill="#fff"/><path d="M184.436,338.414V341.7a.5.5,0,0,0,.1.337.679.679,0,0,0,.352.185v.232H181.86v-.232a.721.721,0,0,0,.356-.189.5.5,0,0,0,.1-.334v-8.384a.512.512,0,0,0-.1-.341.724.724,0,0,0-.356-.188v-.232h6.079a9.369,9.369,0,0,1,1.762.13,3.1,3.1,0,0,1,1.136.457,2.292,2.292,0,0,1,.839,1.022,3.392,3.392,0,0,1,.263,1.334q0,2.423-2.641,2.836l1.886,2.734a6.151,6.151,0,0,0,.729.925.913.913,0,0,0,.566.229v.232h-3.516v-.232q.363-.058.363-.262a1.867,1.867,0,0,0-.335-.631l-1.965-2.915h-2.592Zm0-1.632h3.274a8.236,8.236,0,0,0,1.025-.043,1.6,1.6,0,0,0,.548-.181,1.335,1.335,0,0,0,0-2.147,1.518,1.518,0,0,0-.544-.185,8.95,8.95,0,0,0-1.029-.039h-3.274Z" transform="translate(-112.399 -223.085)" fill="#fff"/><path d="M293.885,331.968a5.643,5.643,0,0,1,4.029,1.4,4.94,4.94,0,0,1,1.573,3.786,4.994,4.994,0,0,1-.755,2.654,5.227,5.227,0,0,1-4.833,2.408,5.613,5.613,0,0,1-4.008-1.4,4.871,4.871,0,0,1-1.21-1.791,5.234,5.234,0,0,1-.363-1.936,5.148,5.148,0,0,1,.748-2.72A5.271,5.271,0,0,1,293.885,331.968Zm.007,1.675a3.307,3.307,0,0,0-2.313.841,3.445,3.445,0,0,0,2.328,6.048,3.238,3.238,0,0,0,3.16-2.067,3.582,3.582,0,0,0,.256-1.334,3.345,3.345,0,0,0-1.1-2.647A3.449,3.449,0,0,0,293.892,333.643Z" transform="translate(-187.289 -222.673)" fill="#fff"/><path d="M415.047,333.316v5.548a4,4,0,0,1-.569,2.357q-1.024,1.407-4.235,1.407a6.8,6.8,0,0,1-3.552-.762,2.312,2.312,0,0,1-1-1.2,5.338,5.338,0,0,1-.27-1.8v-5.548a.51.51,0,0,0-.1-.341.728.728,0,0,0-.356-.188v-.232h3.04v.232a.692.692,0,0,0-.36.185.515.515,0,0,0-.1.345v4.939a6.269,6.269,0,0,0,.093,1.266,1.462,1.462,0,0,0,.348.686,4.068,4.068,0,0,0,4.677,0,1.493,1.493,0,0,0,.341-.686,6.282,6.282,0,0,0,.093-1.266v-4.939a.51.51,0,0,0-.1-.341.728.728,0,0,0-.356-.188v-.232H415.5v.232a.724.724,0,0,0-.355.188A.51.51,0,0,0,415.047,333.316Z" transform="translate(-269.346 -223.086)" fill="#fff"/><path d="M532.779,338.437V341.7a.5.5,0,0,0,.1.337.681.681,0,0,0,.352.185v.232H530.2v-.232a.72.72,0,0,0,.356-.189.5.5,0,0,0,.1-.334v-8.384a.51.51,0,0,0-.1-.341.726.726,0,0,0-.356-.188v-.232h6.065a7.716,7.716,0,0,1,1.683.145,2.926,2.926,0,0,1,1.1.5,2.5,2.5,0,0,1,.768.971,3.209,3.209,0,0,1,.278,1.32,2.991,2.991,0,0,1-.527,1.755,2.475,2.475,0,0,1-1.206.917,6.4,6.4,0,0,1-2.1.272Zm0-1.632h3.239a3.112,3.112,0,0,0,1.359-.21.99.99,0,0,0,.4-.439,1.5,1.5,0,0,0,0-1.32,1,1,0,0,0-.4-.438,3.08,3.08,0,0,0-1.359-.211h-3.239Z" transform="translate(-357.443 -223.086)" fill="#fff"/></g></svg>