<svg xmlns="http://www.w3.org/2000/svg" width="105" height="105" viewBox="0 0 105 105"><g transform="translate(-12 -12)"><path d="M38.237,39.138h0l0-.006Z" transform="translate(10.01 10.353)" fill="#fff"/><path d="M27.8,59.692l-.019.09v0Z" transform="translate(6.023 18.198)" fill="#fff"/><path d="M43.164,46.221l-.018.086,0,.012Z" transform="translate(11.884 13.058)" fill="#fff"/><path d="M47.07,69.321l0-.008v-.006Z" transform="translate(13.382 21.867)" fill="#fff"/><path d="M75.579,51.289a8.289,8.289,0,1,0-8.289,8.289A8.289,8.289,0,0,0,75.579,51.289Zm-12.434,0a4.145,4.145,0,1,1,4.145,4.145A4.15,4.15,0,0,1,63.145,51.289Z" transform="translate(17.934 11.829)" fill="#fff"/><path d="M64.5,12a52.206,52.206,0,0,0-22.13,4.913A18.065,18.065,0,0,0,29.961,12,17.811,17.811,0,0,0,12,29.615c0,3.653,2.237,8.256,5,12.559A52.492,52.492,0,1,0,64.5,12ZM29.961,16.145a13.645,13.645,0,0,1,13.816,13.47c0,7.438-13.816,22.451-13.816,22.451S16.145,37.054,16.145,29.615A13.646,13.646,0,0,1,29.961,16.145ZM19.76,46.187a107.727,107.727,0,0,0,7.151,8.685l3.049,3.314,3.049-3.314C35.5,52.167,47.921,38.233,47.921,29.615a17.249,17.249,0,0,0-2.795-9.4A48.016,48.016,0,0,1,55.647,16.97l-1.123,2.02a6.353,6.353,0,0,0-.75,3.081,6.588,6.588,0,0,0,1.133,3.8l0,0,3.151,4.427a4.35,4.35,0,0,1,.554,1.259,6.137,6.137,0,0,1,.24,1.608,3.029,3.029,0,0,1-.041.532v0l-.818,4.457a4,4,0,0,1-1.838,2.369l-5.542,2.557a4.844,4.844,0,0,0-2.367,6.422l2.339,5.092a5.483,5.483,0,0,1,.354,1.214,8.8,8.8,0,0,1,.145,1.563,5.315,5.315,0,0,1-.1,1.105l-.028.112-.637,2.766a4.9,4.9,0,0,1-2.012,2.624l-4.094,2.172a2.7,2.7,0,0,1-1.191.239,2.957,2.957,0,0,1-1.478-.35l-3.349-2.157a6.64,6.64,0,0,0-3.564-.974,6.539,6.539,0,0,0-3.316.847h0l-3.354,1.985a4.478,4.478,0,0,0-1.569,1.535,4.068,4.068,0,0,0-.584,2.093,4.318,4.318,0,0,0,1.249,2.994l0,0,1.878,1.959a3.132,3.132,0,0,1,.589,1.033,4.244,4.244,0,0,1,.261,1.388,2.142,2.142,0,0,1-.037.426l-.374,1.793a7.919,7.919,0,0,1-1.977,3.429l-1.7,1.522a43.665,43.665,0,0,0-3.632,3.77,48.26,48.26,0,0,1-2.3-41.482Zm4.588,45.227c.188-.232.39-.484.6-.746a39.7,39.7,0,0,1,3.516-3.687l1.7-1.522a11.9,11.9,0,0,0,3.267-5.666l.377-1.813a6.3,6.3,0,0,0,.122-1.254,8.29,8.29,0,0,0-.515-2.813,7.086,7.086,0,0,0-1.487-2.476l-1.878-1.96,0,0-.073-.1.1-.082,3.356-1.985h0a2.506,2.506,0,0,1,1.2-.265,2.618,2.618,0,0,1,1.322.315L39.3,69.511a6.951,6.951,0,0,0,3.723,1.01,6.737,6.737,0,0,0,3.133-.721l4.094-2.172a8.932,8.932,0,0,0,4.109-5.355l.669-2.907a9.387,9.387,0,0,0,.2-2.006,12.934,12.934,0,0,0-.216-2.317,9.382,9.382,0,0,0-.662-2.19l-2.342-5.1,0-.006-.059-.275a.705.705,0,0,1,.4-.641l5.543-2.557a8.047,8.047,0,0,0,4.174-5.385l.818-4.456v0A7.191,7.191,0,0,0,63,33.16a10.147,10.147,0,0,0-.4-2.748,8.333,8.333,0,0,0-1.163-2.521l-3.15-4.425v0a2.56,2.56,0,0,1-.362-1.387,2.306,2.306,0,0,1,.227-1.065l2.615-4.7c1.238-.1,2.481-.166,3.741-.166a48.427,48.427,0,0,1,47.732,40.641l-1.851-1.029a9.458,9.458,0,0,0-2.461-.9,12.069,12.069,0,0,0-2.631-.307,8.084,8.084,0,0,0-1.413.115l-.383.068A20.718,20.718,0,0,0,64.5,64.5c0,6.984,6.857,17.079,12.141,23.823L73.48,91.879a3.623,3.623,0,0,1-1.223.8,4.14,4.14,0,0,1-1.528.363l-.131,0-6.042-.466-.152-.033-.007,0V92.52l.019-.124.006-.015L65.5,88.79a5.3,5.3,0,0,0,.217-1.517,6.075,6.075,0,0,0-.688-2.774,5.576,5.576,0,0,0-1.963-2.173l-2.423-1.514a5,5,0,0,0-2.662-.753,5.114,5.114,0,0,0-4.1,2.014l-7.346,9.794a4.842,4.842,0,0,0,.967,6.77l2.687,2.014a1.8,1.8,0,0,1,.508.684,2.49,2.49,0,0,1,.233,1.01,1.457,1.457,0,0,1-.048.384L48.717,110.2A48.579,48.579,0,0,1,24.349,91.415ZM68.645,64.5a16.579,16.579,0,1,1,33.158,0c0,9.153-16.579,27.63-16.579,27.63S68.645,73.654,68.645,64.5ZM64.5,112.855a48.265,48.265,0,0,1-11.811-1.466l2.179-7.509a5.55,5.55,0,0,0,.211-1.536,6.6,6.6,0,0,0-.615-2.747,5.909,5.909,0,0,0-1.786-2.264l-2.686-2.014a.685.685,0,0,1-.272-.558.662.662,0,0,1,.134-.408l7.347-9.8a.987.987,0,0,1,.779-.355.881.881,0,0,1,.466.123l2.422,1.514a1.474,1.474,0,0,1,.482.566,1.963,1.963,0,0,1,.222.866,1.172,1.172,0,0,1-.043.326L60.456,91.18a4.549,4.549,0,0,0-.2,1.34A4.154,4.154,0,0,0,61.4,95.4,4.367,4.367,0,0,0,64.24,96.71l6.042.466c.151.011.3.017.449.017a8.169,8.169,0,0,0,3.169-.7,7.631,7.631,0,0,0,2.679-1.855l2.705-3.045c1.264,1.517,2.284,2.673,2.856,3.31l3.084,3.437L88.307,94.9c2.947-3.283,17.64-20.175,17.64-30.4a20.626,20.626,0,0,0-.841-5.8c.062,0,.117-.007.184-.007a8.018,8.018,0,0,1,1.71.2,5.474,5.474,0,0,1,1.368.481l4.409,2.45c.05.887.079,1.777.079,2.673A48.41,48.41,0,0,1,64.5,112.855Z" transform="translate(0 0)" fill="#fff"/><path d="M34.066,25.907a6.908,6.908,0,1,0-6.909,6.908A6.907,6.907,0,0,0,34.066,25.907Zm-9.671,0a2.763,2.763,0,1,1,2.762,2.763A2.765,2.765,0,0,1,24.395,25.907Z" transform="translate(3.148 2.671)" fill="#fff"/></g></svg>