<svg xmlns="http://www.w3.org/2000/svg" width="120.2" height="115.874" viewBox="0 0 120.2 115.874"><g transform="translate(-24.312 -48.434)"><g transform="translate(24.312 48.434)"><g transform="translate(68.742 103.868)"><path d="M293.21,422.742h-5.157a1.095,1.095,0,1,1,0-2.189h5.157a1.095,1.095,0,1,1,0,2.189Z" transform="translate(-286.959 -420.553)" fill="#fff"/></g><g transform="translate(68.742 107.091)"><path d="M293.21,434.292h-5.157a1.095,1.095,0,0,1,0-2.19h5.157a1.095,1.095,0,0,1,0,2.19Z" transform="translate(-286.959 -432.102)" fill="#fff"/></g><g transform="translate(36.411 89.28)"><path d="M194.652,394.885a99.917,99.917,0,0,1-22.608-2.612,1.094,1.094,0,0,1-.847-1.066c0-1.856-.021-3.458-.039-4.87-.014-1.106-.027-2.06-.027-2.929,0-6.925.917-7.872,7.3-11.292a1.095,1.095,0,1,1,1.034,1.93c-5.679,3.044-6.142,3.293-6.142,9.363,0,.855.012,1.8.027,2.9.016,1.194.033,2.521.038,4.026a97.666,97.666,0,0,0,21.267,2.362,101.8,101.8,0,0,0,21.591-2.368c.005-1.463.021-2.76.036-3.926.014-1.073.026-2.026.026-2.879,0-6.2-.267-6.339-7.089-9.991-1.348-.722-2.981-1.6-4.887-2.67l-5.319,8.762a1.095,1.095,0,0,1-1.681.234l-2.485-2.309-2.809,2.8a1.095,1.095,0,0,1-1.733-.25l-2.7-4.935a1.095,1.095,0,0,1,1.921-1.051l2,3.655,2.522-2.513a1.1,1.1,0,0,1,1.518-.027l2.273,2.112,5.174-8.522a1.094,1.094,0,0,1,1.479-.382c2.283,1.3,4.212,2.337,5.761,3.167,6.986,3.74,8.245,4.414,8.245,11.921,0,.861-.012,1.823-.026,2.906-.018,1.389-.037,2.963-.037,4.778a1.1,1.1,0,0,1-.854,1.068A104.29,104.29,0,0,1,194.652,394.885Z" transform="translate(-171.131 -368.292)" fill="#fff"/></g><g transform="translate(48.041 58.355)"><path d="M225.061,287.043c-8.052,0-12.264-11.251-12.264-17.282a12.257,12.257,0,1,1,24.514,0C237.311,275.792,233.1,287.043,225.061,287.043Zm0-27.357a10.086,10.086,0,0,0-10.075,10.074c0,5.123,3.556,15.093,10.075,15.093s10.061-9.971,10.061-15.093A10.079,10.079,0,0,0,225.061,259.686Z" transform="translate(-212.797 -257.497)" fill="#fff"/></g><g transform="translate(59.002 86.943)"><path d="M256.417,374.113a1.1,1.1,0,0,1-.745-.293l-3.257-3.026a1.1,1.1,0,0,1-.138-1.449l6.581-8.979a1.094,1.094,0,0,1,1.623-.16l2.547,2.336a1.1,1.1,0,0,1,.2,1.375l-5.871,9.67a1.09,1.09,0,0,1-.936.526Zm-1.8-4.259,1.56,1.449,4.707-7.754-.985-.9Z" transform="translate(-252.066 -359.919)" fill="#fff"/></g><g transform="translate(49.874 86.944)"><path d="M226.031,374.631a1.084,1.084,0,0,1-.156-.011,1.1,1.1,0,0,1-.8-.558L219.5,363.876a1.094,1.094,0,0,1,.222-1.334l2.556-2.336a1.094,1.094,0,0,1,1.622.162l6.572,8.979a1.1,1.1,0,0,1-.111,1.422l-3.555,3.543A1.094,1.094,0,0,1,226.031,374.631Zm-4.2-11.053,4.461,8.153,1.856-1.85-5.3-7.236Z" transform="translate(-219.362 -359.92)" fill="#fff"/></g><g transform="translate(51.028 66.17)"><path d="M229.422,291.043a6.314,6.314,0,0,1-5.8-3.33,1.095,1.095,0,0,1,1.95-1,4.206,4.206,0,0,0,3.856,2.137,4.739,4.739,0,0,0,3.1-1.031c2.105-1.989,2.666-2.325,3.283-2.325a1.231,1.231,0,0,1,1.225,1.292,2.639,2.639,0,0,1-.049.468,9.4,9.4,0,0,1,3-.6,2.65,2.65,0,0,1,2.848,1.858,1.094,1.094,0,0,1-2.1.6c-.023-.081-.078-.271-.743-.271a7.92,7.92,0,0,0-2.493.557,3.4,3.4,0,0,1-1.171.248,1.541,1.541,0,0,1-1.506-.962c-.222.2-.48.441-.782.726A6.815,6.815,0,0,1,229.422,291.043Z" transform="translate(-223.496 -285.497)" fill="#fff"/></g><g transform="translate(105.164 45.488)"><path d="M423.685,213.591h-5.143a1.095,1.095,0,0,1,0-2.189h5.143a1.095,1.095,0,1,1,0,2.189Z" transform="translate(-417.447 -211.402)" fill="#fff"/></g><g transform="translate(105.164 48.71)"><path d="M423.685,225.133h-5.143a1.095,1.095,0,0,1,0-2.189h5.143a1.095,1.095,0,1,1,0,2.189Z" transform="translate(-417.447 -222.944)" fill="#fff"/></g><g transform="translate(72.845 30.925)"><path d="M325.182,185.794a99.9,99.9,0,0,1-22.606-2.611,1.1,1.1,0,0,1-.847-1.066c0-1.876-.021-3.49-.04-4.915-.015-1.11-.028-2.069-.028-2.94,0-6.879.92-7.823,7.321-11.242a1.095,1.095,0,0,1,1.032,1.931c-5.7,3.043-6.164,3.292-6.164,9.311,0,.857.013,1.809.027,2.911.016,1.206.034,2.547.039,4.07a97.649,97.649,0,0,0,21.265,2.361,101.691,101.691,0,0,0,21.584-2.367c0-1.459.021-2.753.035-3.917.013-1.07.025-2.023.025-2.874,0-6.19-.265-6.332-7.053-9.961-1.358-.726-3-1.605-4.927-2.689l-5.315,8.758a1.094,1.094,0,0,1-1.684.231l-2.49-2.329-2.805,2.8a1.095,1.095,0,0,1-1.733-.249l-2.673-4.872a1.095,1.095,0,0,1,1.919-1.053l1.972,3.594,2.523-2.515a1.094,1.094,0,0,1,1.52-.024l2.277,2.13,5.167-8.515a1.1,1.1,0,0,1,1.479-.383c2.3,1.315,4.242,2.352,5.8,3.186,6.956,3.719,8.21,4.389,8.21,11.892,0,.86-.012,1.82-.025,2.9-.017,1.386-.037,2.957-.037,4.768a1.1,1.1,0,0,1-.853,1.068A104.094,104.094,0,0,1,325.182,185.794Z" transform="translate(-301.661 -159.226)" fill="#fff"/></g><g transform="translate(84.464 0)"><path d="M355.536,77.956c-8.043,0-12.25-11.251-12.25-17.283a12.257,12.257,0,0,1,24.514,0A23.64,23.64,0,0,1,364.766,71.5C362.387,75.662,359.11,77.956,355.536,77.956Zm0-27.333a10.067,10.067,0,0,0-10.061,10.05c0,5.123,3.551,15.093,10.061,15.093S365.61,65.8,365.61,60.673A10.073,10.073,0,0,0,355.536,50.623Z" transform="translate(-343.286 -48.434)" fill="#fff"/></g><g transform="translate(95.424 28.586)"><path d="M386.909,165.043a1.1,1.1,0,0,1-.748-.3L382.9,161.7a1.094,1.094,0,0,1-.134-1.448l6.58-8.955a1.094,1.094,0,0,1,1.622-.158l2.547,2.339a1.094,1.094,0,0,1,.2,1.374l-5.866,9.667a1.1,1.1,0,0,1-.787.517A1.07,1.07,0,0,1,386.909,165.043Zm-1.8-4.281,1.567,1.466,4.7-7.747-.987-.906Z" transform="translate(-382.552 -150.848)" fill="#fff"/></g><g transform="translate(86.296 28.587)"><path d="M356.52,165.536a1.1,1.1,0,0,1-.96-.568l-5.573-10.159a1.094,1.094,0,0,1,.222-1.334l2.56-2.339a1.095,1.095,0,0,1,1.621.161l6.567,8.955a1.1,1.1,0,0,1-.11,1.423l-3.554,3.543A1.094,1.094,0,0,1,356.52,165.536Zm-4.2-11.026,4.459,8.128,1.856-1.851-5.29-7.213Z" transform="translate(-349.851 -150.849)" fill="#fff"/></g><g transform="translate(87.441 7.8)"><path d="M359.912,81.93a6.36,6.36,0,0,1-5.838-3.342,1.094,1.094,0,1,1,1.947-1,4.252,4.252,0,0,0,3.891,2.153,4.7,4.7,0,0,0,3.079-1.02c2.1-2,2.664-2.34,3.279-2.34a1.23,1.23,0,0,1,1.223,1.291,2.7,2.7,0,0,1-.051.482,9.415,9.415,0,0,1,3-.62,2.637,2.637,0,0,1,2.84,1.89,1.095,1.095,0,0,1-2.111.578c-.025-.091-.076-.279-.728-.279a7.557,7.557,0,0,0-2.473.569,3.448,3.448,0,0,1-1.176.247,1.554,1.554,0,0,1-1.515-.962c-.222.2-.48.444-.782.731A6.777,6.777,0,0,1,359.912,81.93Z" transform="translate(-353.953 -76.38)" fill="#fff"/></g><g transform="translate(32.306 45.488)"><path d="M162.689,213.591h-5.17a1.095,1.095,0,0,1,0-2.189h5.17a1.095,1.095,0,1,1,0,2.189Z" transform="translate(-156.425 -211.402)" fill="#fff"/></g><g transform="translate(32.306 48.71)"><path d="M162.689,225.133h-5.17a1.095,1.095,0,0,1,0-2.189h5.17a1.095,1.095,0,1,1,0,2.189Z" transform="translate(-156.425 -222.944)" fill="#fff"/></g><g transform="translate(0 30.925)"><path d="M64.2,185.8a99.883,99.883,0,0,1-22.6-2.611,1.1,1.1,0,0,1-.847-1.066c0-1.874-.021-3.488-.04-4.911-.015-1.11-.027-2.069-.027-2.939,0-6.883.921-7.828,7.33-11.248a1.095,1.095,0,0,1,1.031,1.931c-5.706,3.045-6.172,3.293-6.172,9.316,0,.856.013,1.808.027,2.91.016,1.2.034,2.545.039,4.067a97.619,97.619,0,0,0,21.26,2.361,101.754,101.754,0,0,0,21.585-2.367c.005-1.463.021-2.76.036-3.927.013-1.072.025-2.024.025-2.876,0-6.18-.265-6.321-7.053-9.95-1.357-.726-3-1.6-4.925-2.688l-5.332,8.76a1.095,1.095,0,0,1-1.685.228l-2.471-2.325-2.8,2.8a1.095,1.095,0,0,1-1.733-.25l-2.666-4.872a1.095,1.095,0,0,1,1.92-1.051l1.966,3.593,2.521-2.514a1.1,1.1,0,0,1,1.523-.022l2.261,2.126,5.182-8.514a1.094,1.094,0,0,1,1.478-.381c2.3,1.314,4.239,2.351,5.8,3.184,6.956,3.719,8.21,4.39,8.21,11.881,0,.86-.012,1.822-.026,2.9-.018,1.388-.037,2.962-.037,4.778a1.1,1.1,0,0,1-.853,1.068A104.236,104.236,0,0,1,64.2,185.8Z" transform="translate(-40.684 -159.228)" fill="#fff"/></g><g transform="translate(11.632)"><path d="M94.607,77.956c-3.574,0-6.849-2.295-9.223-6.461a23.666,23.666,0,0,1-3.027-10.822,12.25,12.25,0,0,1,24.5,0C106.857,66.7,102.65,77.956,94.607,77.956Zm0-27.333a10.067,10.067,0,0,0-10.061,10.05c0,5.123,3.551,15.093,10.061,15.093s10.061-9.971,10.061-15.093A10.067,10.067,0,0,0,94.607,50.623Z" transform="translate(-82.356 -48.434)" fill="#fff"/></g><g transform="translate(22.579 28.586)"><path d="M125.914,165.043a1.1,1.1,0,0,1-.75-.3l-3.244-3.051a1.1,1.1,0,0,1-.133-1.445l6.568-8.955a1.095,1.095,0,0,1,1.621-.161l2.56,2.339a1.1,1.1,0,0,1,.2,1.377l-5.884,9.667a1.1,1.1,0,0,1-.788.516A1.035,1.035,0,0,1,125.914,165.043Zm-1.788-4.279,1.555,1.463,4.714-7.744-.995-.909Z" transform="translate(-121.576 -150.848)" fill="#fff"/></g><g transform="translate(13.464 28.586)"><path d="M95.577,165.535a1.1,1.1,0,0,1-.96-.569l-5.56-10.159a1.1,1.1,0,0,1,.219-1.331l2.543-2.338a1.094,1.094,0,0,1,1.623.158l6.572,8.955a1.1,1.1,0,0,1-.11,1.423l-3.554,3.543A1.094,1.094,0,0,1,95.577,165.535Zm-4.189-11.028,4.449,8.129,1.855-1.849-5.292-7.21Z" transform="translate(-88.922 -150.847)" fill="#fff"/></g><g transform="translate(14.596 7.8)"><path d="M98.937,81.93a6.377,6.377,0,0,1-5.84-3.339,1.095,1.095,0,1,1,1.944-1.006,4.264,4.264,0,0,0,3.9,2.156,4.681,4.681,0,0,0,3.071-1.019c2.111-2,2.673-2.341,3.289-2.341a1.23,1.23,0,0,1,1.223,1.29,2.668,2.668,0,0,1-.051.48,9.33,9.33,0,0,1,2.993-.617,2.641,2.641,0,0,1,2.845,1.89A1.095,1.095,0,0,1,110.2,80c-.025-.091-.076-.28-.734-.28a7.585,7.585,0,0,0-2.47.569,3.454,3.454,0,0,1-1.177.248,1.549,1.549,0,0,1-1.513-.963c-.223.2-.483.445-.787.733A6.757,6.757,0,0,1,98.937,81.93Z" transform="translate(-92.975 -76.38)" fill="#fff"/></g><g transform="translate(48.041 58.355)"><path d="M225.061,287.043c-8.052,0-12.264-11.251-12.264-17.282a12.257,12.257,0,1,1,24.514,0C237.311,275.792,233.1,287.043,225.061,287.043Zm0-27.357a10.086,10.086,0,0,0-10.075,10.074c0,5.123,3.556,15.093,10.075,15.093s10.061-9.971,10.061-15.093A10.079,10.079,0,0,0,225.061,259.686Z" transform="translate(-212.797 -257.497)" fill="#fff"/></g><g transform="translate(59.002 95.923)"><path d="M254.464,395.483a1.091,1.091,0,0,1-.742-.291l-1.3-1.2a1.095,1.095,0,0,1,1.485-1.608l1.3,1.2a1.095,1.095,0,0,1-.743,1.9Z" transform="translate(-252.065 -392.089)" fill="#fff"/></g><g transform="translate(19.588 18.327)"><path d="M151.37,193.879h0a1.1,1.1,0,0,1-.883-.448l-5.851-7.995-1.655,1.513a1.1,1.1,0,0,1-.192.14c-2.472,1.424-4.515,2.512-6.155,3.386-.529.281-1.018.542-1.472.787a1.094,1.094,0,0,1-.986.028,40.965,40.965,0,0,1-18.136-16.853,1.095,1.095,0,1,1,1.908-1.073,38.773,38.773,0,0,0,16.664,15.708l.992-.529c1.6-.854,3.594-1.914,5.988-3.291L144.06,183a1.094,1.094,0,0,1,1.622.162l5.689,7.773,5.7-7.774a1.094,1.094,0,0,1,1.623-.16l2.458,2.254c2.15,1.236,3.99,2.218,5.474,3.009.538.287,1.04.555,1.508.809a38.743,38.743,0,0,0,16.8-15.969,1.095,1.095,0,1,1,1.916,1.058,40.938,40.938,0,0,1-18.286,17.131,1.1,1.1,0,0,1-.993-.031c-.6-.329-1.256-.68-1.979-1.066-1.522-.812-3.416-1.822-5.641-3.1a1.091,1.091,0,0,1-.193-.142l-1.647-1.51-5.858,7.994A1.094,1.094,0,0,1,151.37,193.879Zm-38.889-31.726a1.1,1.1,0,0,1-1.079-.917,40.907,40.907,0,0,1-.54-6.634c0-.942.034-1.835.063-2.508a1.1,1.1,0,0,1,1.122-1.046,102.062,102.062,0,0,0,24.327-2.343c.005-1.463.021-2.76.036-3.927.013-1.072.025-2.025.025-2.877,0-6.18-.265-6.321-7.053-9.95-1.57-.839-3.524-1.884-5.851-3.214a1.1,1.1,0,0,1-.207-.153l-.839-.788a1.1,1.1,0,0,1-.032-1.565,40.241,40.241,0,0,1,28.617-12.137.885.885,0,0,1,.149.009,1.1,1.1,0,0,1,.149-.01,40.2,40.2,0,0,1,28.91,12.138,1.095,1.095,0,0,1-.03,1.562l-.834.788a1.115,1.115,0,0,1-.209.155c-2.384,1.362-4.371,2.42-5.969,3.271-6.671,3.552-6.932,3.691-6.932,9.721,0,.857.013,1.809.027,2.911.016,1.206.034,2.547.039,4.07a97.667,97.667,0,0,0,21.23,2.363c1.015,0,2.048-.016,3.069-.049a1.1,1.1,0,0,1,1.127,1.031c.049.841.073,1.675.073,2.549a40.955,40.955,0,0,1-.49,6.32,1.095,1.095,0,1,1-2.163-.339,38.733,38.733,0,0,0,.463-5.981c0-.464-.007-.915-.021-1.363-.688.015-1.377.022-2.059.022a99.944,99.944,0,0,1-22.57-2.612,1.1,1.1,0,0,1-.847-1.066c0-1.876-.021-3.49-.04-4.915-.015-1.11-.028-2.069-.028-2.94,0-7.344,1.235-8,8.092-11.653,1.535-.818,3.434-1.829,5.694-3.115a38,38,0,0,0-26.534-10.677,1.121,1.121,0,0,1-.141-.009,1.073,1.073,0,0,1-.141.01,38.047,38.047,0,0,0-26.255,10.675c2.206,1.256,4.073,2.255,5.582,3.061,6.956,3.719,8.21,4.389,8.21,11.881,0,.861-.012,1.822-.026,2.9-.018,1.388-.037,2.962-.037,4.778a1.1,1.1,0,0,1-.853,1.068,104.792,104.792,0,0,1-23.077,2.62c-.518,0-1.039,0-1.56-.012-.013.422-.021.878-.021,1.344a38.736,38.736,0,0,0,.511,6.278,1.1,1.1,0,0,1-.9,1.258A1.345,1.345,0,0,1,112.481,162.153Z" transform="translate(-110.862 -114.094)" fill="#fff"/></g><g transform="translate(48.041 58.355)"><path d="M225.061,287.043c-8.052,0-12.264-11.251-12.264-17.282a12.257,12.257,0,1,1,24.514,0C237.311,275.792,233.1,287.043,225.061,287.043Zm0-27.357a10.086,10.086,0,0,0-10.075,10.074c0,5.123,3.556,15.093,10.075,15.093s10.061-9.971,10.061-15.093A10.079,10.079,0,0,0,225.061,259.686Z" transform="translate(-212.797 -257.497)" fill="#fff"/></g><g transform="translate(12.417 54.787)"><path d="M155.076,290.82a1.095,1.095,0,0,1-1.062-.83c-.525-2.111-1.82-2.881-6.691-5.492-1.58-.847-3.545-1.9-5.891-3.247a1.086,1.086,0,0,1-.195-.143l-1.647-1.51-5.858,7.994a1.094,1.094,0,0,1-.883.448h0a1.094,1.094,0,0,1-.883-.448l-5.989-8.183a1.095,1.095,0,0,1-.822-1.9l.384-.351a1.094,1.094,0,0,1,1.622.162l5.689,7.773,5.7-7.774a1.094,1.094,0,0,1,1.623-.16l2.458,2.253c2.272,1.3,4.187,2.328,5.73,3.156,4.064,2.179,6.26,3.356,7.314,5.566a45.528,45.528,0,0,0,22.667-39.371c0-1.04-.047-2.095-.087-2.9a1.095,1.095,0,1,1,2.187-.111c.042.828.09,1.919.09,3.008A47.721,47.721,0,0,1,155.6,290.687,1.091,1.091,0,0,1,155.076,290.82Zm-44.468-.024a1.092,1.092,0,0,1-.523-.133,47.7,47.7,0,0,1-24.915-41.9c0-.886.027-1.834.086-2.984a1.095,1.095,0,1,1,2.186.111c-.057,1.113-.083,2.025-.083,2.873a45.5,45.5,0,0,0,22.653,39.346,8.584,8.584,0,0,1,3.743-3.576,1.094,1.094,0,1,1,1.122,1.88c-2.1,1.251-2.847,2.08-3.206,3.548a1.1,1.1,0,0,1-1.063.835Z" transform="translate(-85.17 -244.716)" fill="#fff"/></g><g transform="translate(38.198 11.145)"><path d="M178.63,95.445a1.095,1.095,0,0,1-.49-2.074,47.757,47.757,0,0,1,41.6-.479,1.095,1.095,0,1,1-.932,1.981,45.568,45.568,0,0,0-39.688.457A1.09,1.09,0,0,1,178.63,95.445Z" transform="translate(-177.535 -88.361)" fill="#fff"/></g><g transform="translate(8.011 69.056)"><path d="M87.136,326.292a1.09,1.09,0,0,1-.721-.271,53.6,53.6,0,0,1-17.007-28.862,1.095,1.095,0,1,1,2.14-.46,51.394,51.394,0,0,0,16.309,27.675,1.094,1.094,0,0,1-.722,1.918Z" transform="translate(-69.384 -295.834)" fill="#fff"/></g><g transform="translate(89.469 83.351)"><path d="M362.313,366.287a1.095,1.095,0,0,1-.642-1.982,51.662,51.662,0,0,0,14.837-16.693,1.095,1.095,0,1,1,1.915,1.062,53.865,53.865,0,0,1-15.47,17.405A1.089,1.089,0,0,1,362.313,366.287Z" transform="translate(-361.218 -347.049)" fill="#fff"/></g><g transform="translate(108.856 58.084)"><path d="M431.77,274.019a1.1,1.1,0,0,1-1.047-1.416,51.035,51.035,0,0,0,2.242-14.982,1.095,1.095,0,1,1,2.189,0,53.222,53.222,0,0,1-2.338,15.624A1.1,1.1,0,0,1,431.77,274.019Z" transform="translate(-430.675 -256.527)" fill="#fff"/></g><g transform="translate(72.518 7.699)"><path d="M310.28,81.406a1.09,1.09,0,0,1-.471-.107,49.94,49.94,0,0,0-8.51-3.13,1.095,1.095,0,1,1,.571-2.113,52.139,52.139,0,0,1,8.884,3.269,1.095,1.095,0,0,1-.474,2.082Z" transform="translate(-300.49 -76.017)" fill="#fff"/></g><g transform="translate(44.855 5.929)"><path d="M202.477,73.807a1.095,1.095,0,0,1-.294-2.149,53.619,53.619,0,0,1,14.442-1.984,1.095,1.095,0,1,1,0,2.189,51.439,51.439,0,0,0-13.852,1.9A1.1,1.1,0,0,1,202.477,73.807Z" transform="translate(-201.382 -69.674)" fill="#fff"/></g></g></g></svg>