<svg xmlns="http://www.w3.org/2000/svg" width="39.392" height="39.392" viewBox="0 0 39.392 39.392"><path d="M46.386,46.279a.821.821,0,0,1-.609-1.369l6.429-7.146-6.429-7.145a.821.821,0,0,1,1.22-1.1l6.925,7.695a.825.825,0,0,1,0,1.1L47,46.008A.825.825,0,0,1,46.386,46.279Z" transform="translate(-26.869 -17.247)" fill="#70ad3a"/><path d="M30.386,46.279a.821.821,0,0,1-.609-1.369l6.429-7.146-6.429-7.145a.821.821,0,0,1,1.22-1.1l6.925,7.695a.825.825,0,0,1,0,1.1L31,46.008a.825.825,0,0,1-.611.271Z" transform="translate(-17.434 -17.247)" fill="#70ad3a"/><path d="M19.7,1.641A18.055,18.055,0,1,1,1.641,19.7,18.077,18.077,0,0,1,19.7,1.641ZM19.7,0a19.7,19.7,0,1,0,19.7,19.7A19.7,19.7,0,0,0,19.7,0Z" transform="translate(0 0)" fill="#70ad3a"/></svg>