<svg xmlns="http://www.w3.org/2000/svg" width="106.434" height="128" viewBox="0 0 106.434 128"><g transform="translate(2867 -1774)"><g transform="translate(-2872 1774)"><path d="M7,128H99a2,2,0,0,0,0-4H93v-2.8a22.113,22.113,0,0,1-4-2.8V124H81V4.6l6.4,5.7A6.232,6.232,0,0,1,89,14V83.6a22.113,22.113,0,0,1,4-2.8V14a10.12,10.12,0,0,0-3-6.7l-6.7-6A5.582,5.582,0,0,0,79.6,0a4.953,4.953,0,0,0-2.7.7L64.5,7.9a7.737,7.737,0,0,0-3.5,6v110H57V79a7.737,7.737,0,0,0-3.5-6l-7.9-4.2a7.614,7.614,0,0,0-3.8-.8,6.971,6.971,0,0,0-3.3.7l-9.7,4.6a6.828,6.828,0,0,0-3.6,5.8v45h-8v-8.7l4-2.1V111l-4,2.1v-9.7l4-2.1V99l-4,2.1V91.4l4-2.1V87l-4,2.1V79.4l4-2.1v-.8a4.529,4.529,0,0,1,.3-1.6L17,77.1V67.4l15-7.9v7.8l4-1.9V13.5l5.4,4.8A6.225,6.225,0,0,1,43,21.9V63.7a6.629,6.629,0,0,1,2.6.8l1.4.7V21.9a9.678,9.678,0,0,0-3-6.6L37.3,9.4a5.583,5.583,0,0,0-3.7-1.3,4.953,4.953,0,0,0-2.7.7L16.5,16A7.737,7.737,0,0,0,13,22V124H7a2,2,0,0,0,0,4ZM65,14a3.876,3.876,0,0,1,1.5-2.6L77,5.2v9.2L65,21.2Zm0,9.5,12-6.8v9.7L65,33.2Zm0,12,12-6.8v9.7L65,45.2Zm0,12,12-6.8v9.7L65,57.2Zm0,12,12-6.8v9.7L65,69.2Zm0,12,12-6.8v9.7L65,81.2Zm0,12,12-6.8v9.7L65,93.2Zm0,12,12-6.8v9.7l-12,6.8Zm0,12,12-6.8v9.7l-12,6.8Zm0,12,12-6.8V124H65ZM44,72.6l7.6,4A3.343,3.343,0,0,1,53,79v45H44ZM29,79a3.158,3.158,0,0,1,1.3-2.2L40,72.2V124H29ZM17,21.9a3.989,3.989,0,0,1,1.4-2.5L32,12.6v8.6L17,29.1Zm0,9.4,15-7.9v9.7L17,41Zm0,12,15-7.9v9.7L17,53Zm0,12,15-7.9v9.7L17,65Z" fill="#fff"/></g><g transform="translate(-2793 1855.262)"><path d="M19.717,3A12.732,12.732,0,0,0,7,15.717C7,28.923,18.306,38.968,18.787,39.388a1.412,1.412,0,0,0,1.929-.064c.479-.478,11.718-11.854,11.718-23.607A12.732,12.732,0,0,0,19.717,3Zm-.055,33.312c-2.672-2.7-9.836-10.858-9.836-20.595a9.891,9.891,0,1,1,19.782,0C29.608,24.42,22.309,33.357,19.662,36.312Z" transform="translate(0 0)" fill="#fff"/><path d="M17.652,7A5.652,5.652,0,1,0,23.3,12.652,5.658,5.658,0,0,0,17.652,7Zm0,8.478a2.826,2.826,0,1,1,2.826-2.826A2.829,2.829,0,0,1,17.652,15.478Z" transform="translate(2.065 1.652)" fill="#fff"/></g></g></svg>