<svg xmlns="http://www.w3.org/2000/svg" width="21.637" height="21.638" viewBox="0 0 21.637 21.638"><path d="M-89.313,606.406c2.888,0,3.23.01,4.371.063a6,6,0,0,1,2.009.373,3.35,3.35,0,0,1,1.244.809,3.342,3.342,0,0,1,.809,1.244,5.97,5.97,0,0,1,.373,2.009c.052,1.141.063,1.483.063,4.372s-.011,3.23-.063,4.371a5.97,5.97,0,0,1-.373,2.009,3.35,3.35,0,0,1-.809,1.244,3.357,3.357,0,0,1-1.244.809,5.976,5.976,0,0,1-2.009.373c-1.141.052-1.482.063-4.371.063s-3.231-.011-4.372-.063a5.975,5.975,0,0,1-2.009-.373,3.351,3.351,0,0,1-1.244-.809,3.351,3.351,0,0,1-.809-1.244,5.975,5.975,0,0,1-.372-2.009c-.052-1.141-.063-1.483-.063-4.371s.011-3.231.063-4.372a5.975,5.975,0,0,1,.372-2.009,3.343,3.343,0,0,1,.809-1.244,3.344,3.344,0,0,1,1.244-.809,6,6,0,0,1,2.009-.373c1.141-.052,1.483-.062,4.372-.062m0-1.95c-2.938,0-3.307.013-4.46.066a7.931,7.931,0,0,0-2.626.5,5.312,5.312,0,0,0-1.916,1.247,5.31,5.31,0,0,0-1.247,1.917,7.933,7.933,0,0,0-.5,2.626c-.053,1.154-.065,1.522-.065,4.46s.012,3.307.065,4.46a7.927,7.927,0,0,0,.5,2.626,5.3,5.3,0,0,0,1.247,1.917,5.311,5.311,0,0,0,1.916,1.248,7.948,7.948,0,0,0,2.626.5c1.154.052,1.522.065,4.46.065s3.307-.013,4.46-.065a7.943,7.943,0,0,0,2.626-.5,5.3,5.3,0,0,0,1.916-1.248,5.3,5.3,0,0,0,1.248-1.917,7.947,7.947,0,0,0,.5-2.626c.052-1.154.065-1.522.065-4.46s-.013-3.307-.065-4.46a7.952,7.952,0,0,0-.5-2.626,5.3,5.3,0,0,0-1.248-1.917,5.3,5.3,0,0,0-1.916-1.247,7.926,7.926,0,0,0-2.626-.5c-1.154-.053-1.522-.066-4.46-.066" transform="translate(100.132 -604.456)" fill="#fff"/><path d="M-87.607,611.427a5.555,5.555,0,0,0-5.555,5.555,5.556,5.556,0,0,0,5.555,5.555,5.556,5.556,0,0,0,5.555-5.555,5.555,5.555,0,0,0-5.555-5.555m0,9.161a3.606,3.606,0,0,1-3.606-3.606,3.606,3.606,0,0,1,3.606-3.606A3.606,3.606,0,0,1-84,616.982a3.606,3.606,0,0,1-3.606,3.606" transform="translate(98.425 -606.163)" fill="#fff"/><path d="M-77.28,610.715a1.3,1.3,0,0,1-1.3,1.3,1.3,1.3,0,0,1-1.3-1.3,1.3,1.3,0,0,1,1.3-1.3,1.3,1.3,0,0,1,1.3,1.3" transform="translate(95.172 -605.671)" fill="#fff"/></svg>