<svg xmlns="http://www.w3.org/2000/svg" xmlns:xlink="http://www.w3.org/1999/xlink" width="105.5" height="55.474" viewBox="0 0 105.5 55.474"><defs><clipPath id="a"><rect width="105.5" height="55.475"/></clipPath><clipPath id="s"><path d="M22.384,34.171c-.352-.633.211-1.125.668-1.266.457-.176,1.055-.457,1.3.211A2.464,2.464,0,0,0,25.689,34.8c.809.316.984.809-.246,1.019-.105,0-.176.035-.281.035a4.006,4.006,0,0,1-2.777-1.687M13.49,0C15.178,10.617,6.072,20.39,2.17,28.9c-5.2,11.39-1.019,24.608,14.132,24.011,1.687-.07,5.344-.809,2.637-2.18C13.033,47.67,10.713,41.413,11.7,35.19a10.28,10.28,0,0,1,6.047-7.8c2.637-1.09,8.226-.07,6.961,4.5-.281.984-1.652.141-2.18-.387a3.193,3.193,0,0,0-1.441-.879c-.246,0,1.441.879.984,2.144s-1.9.316-3.023-.035a2.689,2.689,0,0,0-3.058,1.16c-2.5,3.867.809,9.211,4.324,10.793,6.715,3.023,14.519-.07,16.628-6.926,2.6-8.437-.914-17.191-6.715-23.413l-.07-.07A50.178,50.178,0,0,0,20.8,6.855C18.1,5.133,14.334,3.445,13.49,0Z" transform="translate(-0.04)"/></clipPath><linearGradient id="t" x1="0.195" y1="0.927" x2="0.201" y2="0.927" gradientUnits="objectBoundingBox"><stop offset="0" stop-color="#39b54a"/><stop offset="1" stop-color="#009445"/></linearGradient><clipPath id="u"><path d="M13.49,0C15.178,10.617,6.072,20.39,2.17,28.9c-5.2,11.39-1.019,24.608,14.132,24.011,1.687-.07,5.344-.809,2.637-2.18C13.033,47.67,10.713,41.413,11.7,35.19a9.832,9.832,0,0,1,1.266-3.515h0c.141-.246.316-.492.457-.738C19.642,20.636,15,4.57,13.807.809A3.225,3.225,0,0,1,13.49,0Z" transform="translate(-0.04)"/></clipPath><linearGradient id="v" x1="0.382" y1="0.867" x2="0.386" y2="0.867" xlink:href="#t"/></defs><g clip-path="url(#a)"><path d="M121.205,72.8l8.121,18.949a3.422,3.422,0,0,0-.562-.035c-.141,0-.281-.035-.387-.035h-.457a4.977,4.977,0,0,0-.668.035c-.281,0-.527.035-.773.035-.914-2.672-1.863-5.1-2.848-7.312h-6.89c-.422,1.055-.773,1.934-1.055,2.672s-.562,1.512-.879,2.32c-.281.844-.562,1.617-.773,2.32a1.725,1.725,0,0,0-.387-.035c-.105,0-.211-.035-.281-.035h-.633c-.07,0-.141.035-.281.035-.105,0-.211.035-.352.035L120.537,72.8Zm2,10.511-2.988-6.926-2.953,6.926Z" transform="translate(-72.691 -47.207)" fill="#58595b"/></g><g clip-path="url(#a)"><path d="M164.4,102.513V89.576c.211,0,.422.035.633.035a2.988,2.988,0,0,0,.914,0c.176,0,.387-.035.633-.035v2.461a4.745,4.745,0,0,1,4.359-2.637,4.028,4.028,0,0,1,3.34,1.266,6.447,6.447,0,0,1,1.019,4.008v7.84a2.162,2.162,0,0,0-.457-.035c-.105,0-.211-.035-.281-.035h-.738c-.07,0-.176.035-.281.035s-.246.035-.422.035V95.306a9.138,9.138,0,0,0-.246-2.355,2.861,2.861,0,0,0-.914-1.547,2.746,2.746,0,0,0-1.863-.562,2.968,2.968,0,0,0-2.777,1.336,8.3,8.3,0,0,0-.773,4.078v6.293a2.162,2.162,0,0,0-.457-.035c-.105,0-.211-.035-.316-.035H165.1a1.131,1.131,0,0,0-.281.035.844.844,0,0,0-.422,0" transform="translate(-106.605 -57.971)" fill="#58595b"/></g><g clip-path="url(#a)"><path d="M207.332,75.236V92.5c-.211,0-.352-.035-.492-.035a.78.78,0,0,1-.316-.035h-.387a3.643,3.643,0,0,0-.562.035c-.246,0-.457.035-.668.035V75.236a57.428,57.428,0,0,0-5.906.316c.035-.141.035-.281.07-.457,0-.176.035-.281.035-.352v-.281c0-.07-.035-.141-.035-.211s-.035-.211-.035-.352h13.992a2.673,2.673,0,0,0-.035.492,1.319,1.319,0,0,0-.035.352,1.211,1.211,0,0,0,.035.316c0,.141.035.316.035.492-.773-.07-1.617-.176-2.637-.211-1.02-.07-2-.105-3.058-.105" transform="translate(-129.042 -47.92)" fill="#58595b"/></g><g clip-path="url(#a)"><path d="M245.07,74.317l-3.762,2.426H240.5l3.023-3.058c.316-.281.492-.492.6-.6.035-.035.141-.105.281-.211a.723.723,0,0,1,.316-.176q.844,0,.949.527v.352a1.894,1.894,0,0,1-.035.281.351.351,0,0,1-.141.176.767.767,0,0,1-.176.141.963.963,0,0,0-.246.141" transform="translate(-155.952 -47.142)" fill="#58595b"/></g><g clip-path="url(#a)"><path d="M236.88,89.9v12.937a2.162,2.162,0,0,0-.457-.035c-.105,0-.211-.035-.281-.035h-.668a1.545,1.545,0,0,0-.316.035c-.141,0-.316.035-.457.035V89.9c.246,0,.422.035.633.035a2.988,2.988,0,0,0,.914,0c.176,0,.387-.035.633-.035" transform="translate(-152.191 -58.296)" fill="#58595b"/></g><g clip-path="url(#a)"><path d="M250.6,102.513V89.576c.246,0,.422.035.633.035a2.333,2.333,0,0,0,.457.035,2.522,2.522,0,0,0,.457-.035c.176,0,.387-.035.633-.035v2.461a4.745,4.745,0,0,1,4.359-2.637,4.028,4.028,0,0,1,3.34,1.266,6.447,6.447,0,0,1,1.02,4.008v7.84a2.162,2.162,0,0,0-.457-.035c-.105,0-.211-.035-.281-.035h-.738c-.07,0-.176.035-.281.035s-.246.035-.422.035V95.306a9.138,9.138,0,0,0-.246-2.355,2.861,2.861,0,0,0-.914-1.547,2.746,2.746,0,0,0-1.863-.562,2.968,2.968,0,0,0-2.777,1.336,8.3,8.3,0,0,0-.773,4.078v6.293a2.162,2.162,0,0,0-.457-.035c-.105,0-.211-.035-.281-.035h-.668a1.131,1.131,0,0,0-.281.035,1,1,0,0,0-.457,0" transform="translate(-162.502 -57.971)" fill="#58595b"/></g><g clip-path="url(#a)"><path d="M76.812,134.835l2.5,5.836H78.43a23.163,23.163,0,0,0-.879-2.25H75.441c-.141.316-.246.6-.316.809s-.176.457-.281.7-.176.492-.246.7H74l2.6-5.836h.211Zm.633,3.234-.914-2.144-.914,2.144Z" transform="translate(-47.985 -87.411)" fill="#58595b"/></g><g clip-path="url(#a)"><path d="M90.2,144.143v-4.008h.668v.773A1.474,1.474,0,0,1,92.2,140.1a1.2,1.2,0,0,1,1.02.387,1.913,1.913,0,0,1,.316,1.23v2.426h-.7v-2.215a4.389,4.389,0,0,0-.07-.738.871.871,0,0,0-.281-.492.894.894,0,0,0-.562-.176.85.85,0,0,0-.844.422,2.445,2.445,0,0,0-.246,1.266v1.934H90.27c.035-.035-.035-.035-.07,0" transform="translate(-58.49 -90.848)" fill="#58595b"/></g><g clip-path="url(#a)"><path d="M106.462,137.346l.668-.246v1.09h.879v.316h-.879v2.426a2.416,2.416,0,0,0,.105.773.489.489,0,0,0,.492.281c.07,0,.176-.035.387-.07v.211a2.053,2.053,0,0,1-.7.141,1.764,1.764,0,0,1-.422-.07.83.83,0,0,1-.316-.211,1.173,1.173,0,0,1-.176-.422,3.153,3.153,0,0,1-.07-.633v-2.426H105.9a1.523,1.523,0,0,0,.035-.176.263.263,0,0,0-.035-.176h.527v-.809Z" transform="translate(-68.671 -88.903)" fill="#58595b"/></g><g clip-path="url(#a)"><path d="M115.458,138.618v2.18a.183.183,0,0,0,.07.141c.035.035.07.035.141.035a.687.687,0,0,0,.246-.035v.176a.894.894,0,0,1-.246.07c-.105,0-.176.035-.281.035a.56.56,0,0,1-.422-.141.454.454,0,0,1-.176-.387l-.07.07a1.706,1.706,0,0,1-1.23.527,1.158,1.158,0,0,1-.773-.281.908.908,0,0,1-.316-.738,1.116,1.116,0,0,1,.211-.7,1.08,1.08,0,0,1,.527-.352c.211-.07.492-.105.809-.176a4.079,4.079,0,0,0,.562-.105c.105-.035.211-.07.246-.141a.379.379,0,0,0,.07-.281.87.87,0,0,0-.984-.984,1.123,1.123,0,0,0-.492.105,1.262,1.262,0,0,0-.352.246c-.07.105-.141.176-.176.246h-.105v-.457a2.35,2.35,0,0,1,1.336-.457,1.335,1.335,0,0,1,1.019.352,1.435,1.435,0,0,1,.387,1.055m-2.25-1.723h-.246l.914-1.2h.422l.914,1.2h-.246l-.879-.773Zm1.582,3.515v-1.23l-.281.07-.527.105a1.489,1.489,0,0,0-.422.141.893.893,0,0,0-.352.281.648.648,0,0,0-.141.457.734.734,0,0,0,.809.809.786.786,0,0,0,.352-.105,1.226,1.226,0,0,0,.316-.211c.035-.035.07-.07.105-.07l.105-.105c.035-.035.035-.141.035-.141" transform="translate(-72.886 -87.995)" fill="#58595b"/></g><g clip-path="url(#a)"><path d="M123.6,144.013v-4.008h.668v.7a2.191,2.191,0,0,1,.316-.422.844.844,0,0,1,.422-.246,1.174,1.174,0,0,1,.527-.105,1.505,1.505,0,0,1,.773.211,1.106,1.106,0,0,1,.457.6,1.471,1.471,0,0,1,1.3-.844,1.234,1.234,0,0,1,1.055.422,1.981,1.981,0,0,1,.316,1.23v2.426h-.7v-2.215a4.389,4.389,0,0,0-.07-.738.871.871,0,0,0-.281-.492.931.931,0,0,0-.6-.176.811.811,0,0,0-.773.387,2.042,2.042,0,0,0-.211.984v2.25h-.7v-2.461a1.471,1.471,0,0,0-.211-.879.8.8,0,0,0-.668-.281.853.853,0,0,0-.633.176.817.817,0,0,0-.281.422,3.1,3.1,0,0,0-.07.6v2.426h-.492a.35.35,0,0,0-.141.035" transform="translate(-80.148 -90.718)" fill="#58595b"/></g><g clip-path="url(#a)"><path d="M148.4,139.993V133.7h.668v6.293h-.562a.066.066,0,0,0-.105,0" transform="translate(-96.23 -86.698)" fill="#58595b"/></g><g clip-path="url(#a)"><path d="M155.558,138.294v2.18a.183.183,0,0,0,.07.141c.035.035.07.035.141.035a.686.686,0,0,0,.246-.035v.176a.894.894,0,0,1-.246.07c-.105,0-.176.035-.281.035a.56.56,0,0,1-.422-.141.454.454,0,0,1-.176-.387l-.07.07a1.706,1.706,0,0,1-1.23.527,1.158,1.158,0,0,1-.773-.281.908.908,0,0,1-.316-.738,1.116,1.116,0,0,1,.211-.7,1.08,1.08,0,0,1,.527-.352,4,4,0,0,1,.809-.176,4.079,4.079,0,0,0,.562-.105c.105-.035.211-.07.246-.141a.379.379,0,0,0,.07-.281.99.99,0,0,0-.246-.738.958.958,0,0,0-.7-.246,1.123,1.123,0,0,0-.492.105,1.262,1.262,0,0,0-.352.246c-.07.105-.141.176-.176.246h-.105v-.457a2.35,2.35,0,0,1,1.336-.457,1.335,1.335,0,0,1,1.02.352,1.42,1.42,0,0,1,.352,1.055m-.668,1.793v-1.23l-.281.07-.527.105a1.488,1.488,0,0,0-.422.141.893.893,0,0,0-.352.281.648.648,0,0,0-.141.457.734.734,0,0,0,.809.809.786.786,0,0,0,.352-.105,1.227,1.227,0,0,0,.316-.211c.035-.035.07-.07.105-.07l.105-.105a.554.554,0,0,0,.035-.141m.105-3.621h-.281l-1.125-.7c-.035-.035-.07-.035-.105-.07s-.07-.035-.07-.105v-.211c.035-.105.141-.176.316-.176a.123.123,0,0,1,.07.035.485.485,0,0,0,.141.105l.141.141Z" transform="translate(-98.889 -87.671)" fill="#58595b"/></g><g clip-path="url(#a)"><path d="M170.572,141.993l.668-1.793h.527c-.176.352-.387.773-.6,1.3l-.633,1.477c-.211.492-.352.914-.457,1.23h-.527c-.035-.141-.141-.387-.281-.738s-.281-.7-.422-1.019-.316-.738-.492-1.2c-.211-.492-.352-.809-.457-1.019h.738c.07.246.176.562.316.914s.246.7.422,1.09.316.809.527,1.23c.105-.141.141-.211.176-.246Z" transform="translate(-108.875 -90.913)" fill="#58595b"/></g><g clip-path="url(#a)"><path d="M179.1,139.251a2.063,2.063,0,0,1,.141-.809,1.627,1.627,0,0,1,.457-.633,2.675,2.675,0,0,1,.668-.422,2.127,2.127,0,0,1,.844-.141,1.991,1.991,0,0,1,1.02.246,1.614,1.614,0,0,1,.668.7,2.17,2.17,0,0,1,.246,1.09,1.892,1.892,0,0,1-.141.773,2.546,2.546,0,0,1-.387.668,1.516,1.516,0,0,1-.668.457,2.3,2.3,0,0,1-.879.176,1.864,1.864,0,0,1-.984-.246,1.78,1.78,0,0,1-.7-.738,1.988,1.988,0,0,1-.281-1.125m2.109-1.758a1.254,1.254,0,0,0-.809.281,1.633,1.633,0,0,0-.457.7,2.622,2.622,0,0,0-.141.914,2.127,2.127,0,0,0,.141.844,2,2,0,0,0,.422.633,1.045,1.045,0,0,0,.738.246,1.012,1.012,0,0,0,.738-.316,1.565,1.565,0,0,0,.422-.738,3.555,3.555,0,0,0,.141-.809,3.874,3.874,0,0,0-.07-.633,1.553,1.553,0,0,0-.211-.562,1.117,1.117,0,0,0-.387-.422.786.786,0,0,0-.527-.141m-.984-.6h-.246l.914-1.2h.422l.914,1.2h-.246l-.879-.773Z" transform="translate(-116.137 -87.995)" fill="#58595b"/></g><g clip-path="url(#a)"><path d="M200.086,140.035v.316l-.914-.07a1.85,1.85,0,0,1,.422.492,1.2,1.2,0,0,1,.141.633,1.14,1.14,0,0,1-.492.984,2.33,2.33,0,0,1-1.266.316,1.378,1.378,0,0,0-.457.07c-.105.035-.141.176-.141.316,0,.176.07.281.176.316a2.294,2.294,0,0,0,.6.07h.527a1.837,1.837,0,0,1,1.09.281.956.956,0,0,1,.352.844,1.427,1.427,0,0,1-.141.668,1.556,1.556,0,0,1-.422.527,2.98,2.98,0,0,1-.668.352,2.326,2.326,0,0,1-.879.105,1.86,1.86,0,0,1-1.055-.316,1.03,1.03,0,0,1-.457-.914.958.958,0,0,1,.246-.7.916.916,0,0,1,.633-.316v-.07a.562.562,0,0,1-.352-.176.636.636,0,0,1-.141-.492.707.707,0,0,1,.141-.457,1.264,1.264,0,0,1,.422-.281,1.264,1.264,0,0,1-.422-.281,1.562,1.562,0,0,1-.281-.387,1.174,1.174,0,0,1-.105-.527,1.323,1.323,0,0,1,.387-.984,1.918,1.918,0,0,1,1.3-.352l1.16.035h.246a.6.6,0,0,0,.352,0m-1.758,3.973c-.879,0-1.3.316-1.3.984a.908.908,0,0,0,.316.738,1.372,1.372,0,0,0,.879.246,1.549,1.549,0,0,0,.914-.246.874.874,0,0,0,.387-.809.931.931,0,0,0-.176-.6.652.652,0,0,0-.422-.246,1.464,1.464,0,0,0-.6-.07m-1.055-2.672a1.339,1.339,0,0,0,.105.562.96.96,0,0,0,.316.422.807.807,0,0,0,.492.141.744.744,0,0,0,.492-.141A.959.959,0,0,0,199,141.9a1.411,1.411,0,0,0,.105-.527,1.5,1.5,0,0,0-.211-.844.732.732,0,0,0-.668-.316.885.885,0,0,0-.7.316,1.468,1.468,0,0,0-.246.809" transform="translate(-127.421 -90.783)" fill="#58595b"/></g><g clip-path="url(#a)"><path d="M209.473,135.987a.363.363,0,1,1-.105-.281.4.4,0,0,1,.105.281m-.07,1.23v4.008h-.7v-4.008h.7" transform="translate(-135.332 -87.93)" fill="#58595b"/></g><g clip-path="url(#a)"><path d="M215.958,138.229v2.18a.183.183,0,0,0,.07.141c.035.035.07.035.141.035a.686.686,0,0,0,.246-.035v.176a.894.894,0,0,1-.246.07c-.105,0-.176.035-.281.035a.56.56,0,0,1-.422-.141.454.454,0,0,1-.176-.387l-.07.07a1.706,1.706,0,0,1-1.23.527,1.158,1.158,0,0,1-.773-.281.908.908,0,0,1-.316-.738,1.116,1.116,0,0,1,.211-.7,1.08,1.08,0,0,1,.527-.352,4,4,0,0,1,.809-.176,4.083,4.083,0,0,0,.562-.105c.105-.035.211-.07.246-.141a.663.663,0,0,0,.07-.281.99.99,0,0,0-.246-.738.958.958,0,0,0-.7-.246,1.123,1.123,0,0,0-.492.105,1.263,1.263,0,0,0-.352.246c-.07.105-.141.176-.176.246h-.07v-.457a2.35,2.35,0,0,1,1.336-.457,1.334,1.334,0,0,1,1.019.352,1.574,1.574,0,0,1,.316,1.055m-.668,1.793v-1.23l-.281.07-.527.105a1.488,1.488,0,0,0-.422.141.893.893,0,0,0-.352.281.648.648,0,0,0-.141.457.734.734,0,0,0,.809.809.786.786,0,0,0,.352-.105,1.227,1.227,0,0,0,.316-.211c.035-.035.07-.07.105-.07l.105-.105a.554.554,0,0,0,.035-.141m.07-4.359-1.16.738h-.246l.949-.949.105-.105.105-.105.07-.07c.035-.035.07-.07.105-.07.176,0,.246.07.281.176v.176c-.07.105-.105.176-.211.211" transform="translate(-138.055 -87.606)" fill="#58595b"/></g><g transform="translate(0.014)"><g clip-path="url(#s)"><path d="M16.925,47.746-33.1,39.555-23.432-19.4l50.025,8.226Z" transform="translate(21.45 12.58)" fill="url(#t)"/><path d="M22.384,34.171c-.352-.633.211-1.125.668-1.266.457-.176,1.055-.457,1.3.211A2.464,2.464,0,0,0,25.689,34.8c.809.316.984.809-.246,1.019-.105,0-.176.035-.281.035a4.006,4.006,0,0,1-2.777-1.687M13.49,0C15.178,10.617,6.072,20.39,2.17,28.9c-5.2,11.39-1.019,24.608,14.132,24.011,1.687-.07,5.344-.809,2.637-2.18C13.033,47.67,10.713,41.413,11.7,35.19a10.28,10.28,0,0,1,6.047-7.8c2.637-1.09,8.226-.07,6.961,4.5-.281.984-1.652.141-2.18-.387a3.193,3.193,0,0,0-1.441-.879c-.246,0,1.441.879.984,2.144s-1.9.316-3.023-.035a2.689,2.689,0,0,0-3.058,1.16c-2.5,3.867.809,9.211,4.324,10.793,6.715,3.023,14.519-.07,16.628-6.926,2.6-8.437-.914-17.191-6.715-23.413l-.07-.07A50.178,50.178,0,0,0,20.8,6.855C18.1,5.133,14.334,3.445,13.49,0Z" transform="translate(-0.04 152.957)"/></g></g><g transform="translate(0.014)"><g clip-path="url(#u)"><path d="M-6.68,3.992-45.808,43.085-84.9,3.992-45.808-35.1Z" transform="translate(55.039 22.761)" fill="url(#v)"/></g></g><g clip-path="url(#a)"><path d="M289.135,80.57a5.328,5.328,0,0,1,.809-.07,1.232,1.232,0,0,1,.949.281.8.8,0,0,1,.246.633.875.875,0,0,1-.633.844h0a.847.847,0,0,1,.492.668,5.808,5.808,0,0,0,.246.914h-.457a4.985,4.985,0,0,1-.211-.773c-.105-.457-.281-.633-.668-.633h-.387V83.84H289.1V80.57Zm.422,1.512h.422c.457,0,.738-.246.738-.633,0-.422-.316-.633-.773-.633-.211,0-.352.035-.422.035v1.23Z" transform="translate(-187.467 -52.2)" fill="#58595b"/></g><g clip-path="url(#a)"><path d="M287.242,82.884a2.742,2.742,0,1,1,2.742-2.742,2.746,2.746,0,0,1-2.742,2.742m0-5.168a2.461,2.461,0,1,0,2.461,2.461,2.446,2.446,0,0,0-2.461-2.461" transform="translate(-184.484 -50.19)" fill="#58595b"/></g></svg>