<svg xmlns="http://www.w3.org/2000/svg" width="42.998" height="42.001" viewBox="0 0 42.998 42.001"><path d="M21.5,42A21.618,21.618,0,0,1,6.3,35.849a20.658,20.658,0,0,1,0-29.7,21.862,21.862,0,0,1,30.4,0,20.658,20.658,0,0,1,0,29.7A21.618,21.618,0,0,1,21.5,42ZM15.743,11.478a2.555,2.555,0,0,0-1.61.707,5.278,5.278,0,0,0-1.252,1.562,5.543,5.543,0,0,0-.637,1.9,8.465,8.465,0,0,0,1.206,5.206,18.768,18.768,0,0,0,3.391,4.618,20.113,20.113,0,0,0,4.643,3.373,9.627,9.627,0,0,0,4.37,1.267,5.351,5.351,0,0,0,.865-.067A5.762,5.762,0,0,0,30.2,28.166a2.25,2.25,0,0,0,.683-1.9,2.1,2.1,0,0,0-.752-1.155,4.178,4.178,0,0,0-1.047-.566,21.522,21.522,0,0,0-3.232-.973l-.116-.024a3.143,3.143,0,0,0-.662-.089,1.444,1.444,0,0,0-.52.09,1.914,1.914,0,0,0-.8.657c-.034.044-.073.089-.111.133s-.081.092-.116.139a.392.392,0,0,1-.285.091,2.321,2.321,0,0,1-1.012-.34,10.18,10.18,0,0,1-2.344-1.811,10.291,10.291,0,0,1-1.821-2.332c-.336-.6-.434-1.108-.25-1.29a2.335,2.335,0,0,1,.2-.167l.075-.06a1.932,1.932,0,0,0,.661-.792,2.059,2.059,0,0,0-.023-1.291,20.984,20.984,0,0,0-.978-3.214,3.838,3.838,0,0,0-.569-1.041,1.9,1.9,0,0,0-1.139-.725A1.6,1.6,0,0,0,15.743,11.478Zm5.649,5.459a.418.418,0,0,0-.431.387.4.4,0,0,0,.091.293.441.441,0,0,0,.3.16,3.53,3.53,0,0,1,3.232,3.214.425.425,0,0,0,.432.385h.046a.442.442,0,0,0,.287-.15.4.4,0,0,0,.1-.3,4.3,4.3,0,0,0-1.275-2.716,4.432,4.432,0,0,0-2.731-1.268Zm.719-2.744a.4.4,0,0,0-.4.347.481.481,0,0,0,.077.314.361.361,0,0,0,.265.161,5.761,5.761,0,0,1,1.388.385,6.221,6.221,0,0,1,2.094,1.381,6.606,6.606,0,0,1,1.411,2.105,5.976,5.976,0,0,1,.387,1.381.414.414,0,0,0,.41.363h.068a.445.445,0,0,0,.284-.185.382.382,0,0,0,.057-.29,7.827,7.827,0,0,0-.432-1.585,7.211,7.211,0,0,0-1.571-2.377,6.726,6.726,0,0,0-2.39-1.561,6.412,6.412,0,0,0-1.57-.43A.4.4,0,0,0,22.111,14.193Zm.75-2.739a.438.438,0,0,0-.422.347.412.412,0,0,0,.065.311.439.439,0,0,0,.277.187,8.933,8.933,0,0,1,1.73.5,8.729,8.729,0,0,1,3.027,2.014,9.36,9.36,0,0,1,2.026,3.01,7.733,7.733,0,0,1,.5,1.721.414.414,0,0,0,.41.339h.068a.44.44,0,0,0,.277-.187.412.412,0,0,0,.065-.311,8.047,8.047,0,0,0-.524-1.857,9.8,9.8,0,0,0-2.208-3.3,10.281,10.281,0,0,0-3.323-2.2,11.272,11.272,0,0,0-1.889-.565A.4.4,0,0,0,22.861,11.454Z" transform="translate(0 0.001)" fill="#70ad3a"/></svg>