<svg xmlns="http://www.w3.org/2000/svg" width="18.359" height="18.341" viewBox="0 0 18.359 18.341"><g transform="translate(-1545 -5933.5)"><path d="M8.993,15.859h0c.278,0,.57-.013.868-.035a11.192,11.192,0,0,0,2.956-.593A7.008,7.008,0,0,0,15.654,13.5l.039-.038a.266.266,0,0,0,.115-.215A.474.474,0,0,0,15.848,13c0-.018,0-.034,0-.051V10.919c0-2,0-4.06,0-6.091a8.45,8.45,0,0,0-.084-1.388A3.74,3.74,0,0,0,14.441,1.1,4.029,4.029,0,0,0,11.812.214C10.755.207,9.6.2,8.183.2l-2.3,0H5.86l-2.323,0c-.057,0-.114,0-.17,0l-.057,0a2.824,2.824,0,0,0-.9.65L2.372.9A6.678,6.678,0,0,0,.748,3.371,10.724,10.724,0,0,0,.085,8.39a10.967,10.967,0,0,0,.327,1.786A11.06,11.06,0,0,1,.06,8.293a11.2,11.2,0,0,1,.03-2.585,10.805,10.805,0,0,1,.642-2.5,7.392,7.392,0,0,1,.681-1.344A6.33,6.33,0,0,1,2.377.7L2.417.667A2.846,2.846,0,0,1,3.328.01H3.4c.057,0,.108,0,.155,0h2.3L8.3,0c1.484,0,2.606,0,3.637.01a4.084,4.084,0,0,1,2.663.9,3.79,3.79,0,0,1,1.34,2.371,8.526,8.526,0,0,1,.085,1.406c0,1.677,0,3.541,0,5.868v2.36c0,.017,0,.035,0,.052a.473.473,0,0,1-.041.253.271.271,0,0,1-.116.218l-.02.02-.02.02a7.087,7.087,0,0,1-2.875,1.748,11.3,11.3,0,0,1-2.995.6C9.643,15.847,9.317,15.859,8.993,15.859Zm-.221,0a11.813,11.813,0,0,1-3.755-.648,7.775,7.775,0,0,1-1.524-.716.412.412,0,0,0-.222-.07.466.466,0,0,0-.165.033,4.825,4.825,0,0,1-1.7.331H1.363a.917.917,0,0,1-.21-.018.437.437,0,0,1-.17-.108.522.522,0,0,0,.16.094.864.864,0,0,0,.206.019H1.4a4.865,4.865,0,0,0,1.718-.335.481.481,0,0,1,.167-.033.416.416,0,0,1,.225.071,7.929,7.929,0,0,0,1.544.726A11.924,11.924,0,0,0,7,15.7a12.19,12.19,0,0,0,1.769.159Zm-7.795-1.2a.09.09,0,0,1-.02-.038c-.01-.043.015-.1.093-.191a2.448,2.448,0,0,0,.543-1.132,1.238,1.238,0,0,0,.015-.366,1.19,1.19,0,0,1-.01.4,2.408,2.408,0,0,1-.536,1.117c-.089.109-.11.164-.083.211ZM1.6,12.889a1.027,1.027,0,0,0-.151-.364A8.475,8.475,0,0,1,.412,10.176a8.438,8.438,0,0,0,1.031,2.305,1.037,1.037,0,0,1,.159.408ZM12.91,10.231H12.9a1.7,1.7,0,1,1,.006,0Zm0-2.7a1,1,0,0,0-.705,1.7.988.988,0,0,0,.7.3h.009a1,1,0,0,0,.988-1,.988.988,0,0,0-.981-1ZM7.723,10.217a1.587,1.587,0,0,1-.443-.065,1.728,1.728,0,0,1-.809-.479,1.639,1.639,0,0,1-.4-.842A1.591,1.591,0,0,1,6.736,7.17,1.622,1.622,0,0,1,7.7,6.84a1.824,1.824,0,0,1,.828.216c.028.014.056.03.09.049l.01,0,.019.011.038.02.008,0a.2.2,0,0,1,.029-.164.232.232,0,0,1,.174-.047h.051c.451.006.451.006.451.466,0,.2,0,.422,0,.674v.167c0,.577,0,1.174.005,1.76a.232.232,0,0,1-.042.168.17.17,0,0,1-.129.038H9.187l-.068,0c-.173-.008-.336-.015-.411-.23-.012-.036-.028-.053-.048-.053a.124.124,0,0,0-.066.038l-.006.005a.171.171,0,0,1-.024.017A1.706,1.706,0,0,1,7.723,10.217Zm-.01-2.676h0a.987.987,0,1,0,0,1.973.972.972,0,0,0,.979-.977.989.989,0,0,0-.285-.71.972.972,0,0,0-.7-.286Zm2.832,2.666h0c-.544,0-.56-.018-.56-.557q0-.439,0-.878c0-.89,0-1.81,0-2.72a.238.238,0,0,1,.043-.174.215.215,0,0,1,.159-.042h.039c.507.01.507.01.507.526V8.026q0,.132,0,.264V8.3q0,.126,0,.253V8.67c0,.445,0,.9,0,1.353a.2.2,0,0,1-.037.146A.2.2,0,0,1,10.544,10.207Zm-8.058,0H2.48a.209.209,0,0,1-.156-.041.2.2,0,0,1-.035-.156A.834.834,0,0,1,2.481,9.5c.51-.63,1.027-1.274,1.528-1.9l.151-.188.013-.017.139-.173,0,0,.31-.385.061-.079.026-.034.027-.035.012-.016a.114.114,0,0,0-.093-.041l-.035,0H4.614l-.042,0H4.434l-.946,0c-.364,0-.656,0-.918,0H2.56a.192.192,0,0,1-.149-.042.183.183,0,0,1-.026-.143,1.006,1.006,0,0,0-.008-.2c-.013-.127-.026-.246.042-.32a.246.246,0,0,1,.192-.064,1.385,1.385,0,0,1,.153.012h.011a1.436,1.436,0,0,0,.163.013H4.424c.464,0,.847,0,1.206-.008h.011a.225.225,0,0,1,.175.051c.031.036.038.091.024.19a1.022,1.022,0,0,1-.223.506c-.546.681-1.078,1.351-1.641,2.061l-.08.1-.362.455-.206.26H4.4c.312,0,.74,0,1.161.006a.351.351,0,0,0,.069-.01H5.64l.011,0a.4.4,0,0,1,.074-.01c.067,0,.1.039.116.122a.762.762,0,0,1-.024.4.3.3,0,0,1-.225.181.692.692,0,0,1-.142.01H4.012C3.6,10.2,3.047,10.2,2.486,10.207Z" transform="translate(1546.83 5934)" fill="#fff" stroke="rgba(0,0,0,0)" stroke-miterlimit="10" stroke-width="1"/><path d="M2068.032,276.674a.131.131,0,0,1-.025.032,6.989,6.989,0,0,0-2.9,4.368,10.639,10.639,0,0,0,.644,7.267,4.677,4.677,0,0,0,.456.792,1.141,1.141,0,0,1,.1,1.035,2.236,2.236,0,0,1-.534.975c-.122.131-.1.192.066.228.885.913,1.755,1.841,2.655,2.739a.71.71,0,0,1,.259.384,14.891,14.891,0,0,1-2.763-.112,3.8,3.8,0,0,1-3.035-3.172,8.97,8.97,0,0,1-.085-1.243q0-4.5,0-9a4.417,4.417,0,0,1,.7-2.59,3.834,3.834,0,0,1,2.9-1.664A12.736,12.736,0,0,1,2068.032,276.674Z" transform="translate(-517.874 5657.336)" fill="#fff"/><path d="M2136.389,597.681a7.572,7.572,0,0,0-.615-.671c-.586-.6-1.176-1.189-1.751-1.8-.175-.185-.345-.375-.523-.558-.025-.026-.076-.051-.024-.1a4.794,4.794,0,0,0,2.074-.373.221.221,0,0,1,.229.027,10.057,10.057,0,0,0,4.559,1.394,11.772,11.772,0,0,0,5.263-.712,6.961,6.961,0,0,0,2.632-1.714c.032-.035.061-.075.091-.112a1.288,1.288,0,0,1,.03.6,4.227,4.227,0,0,1-.765,2.417,3.885,3.885,0,0,1-2.91,1.564c-.346.032-.692.036-1.039.036h-7C2136.555,597.688,2136.472,597.684,2136.389,597.681Z" transform="translate(-585.505 5354.15)" fill="#fff"/></g></svg>