<svg xmlns="http://www.w3.org/2000/svg" width="105.127" height="105.126" viewBox="0 0 105.127 105.126"><g transform="translate(0 0)"><path d="M52.564,0H43.8A32.888,32.888,0,0,0,10.953,32.854v3.682L.274,55.887A2.205,2.205,0,0,0,0,56.945q-.006.187,0,.373a6.386,6.386,0,0,0,6.57,6.2,7.842,7.842,0,0,1,4.38,1.64v7.12q-.007.251,0,.5a8.513,8.513,0,0,0,8.76,8.258h13.14q.187.006.373,0a6.386,6.386,0,0,0,6.2-6.57V61.325h-4.38v13.14a2,2,0,0,1-2.19,2.19H19.713a4.126,4.126,0,0,1-4.38-4.38V64.111a2.19,2.19,0,0,0-.738-1.64,12.652,12.652,0,0,0-8.022-3.335l-.029,0a1.923,1.923,0,0,1-2.115-1.709L15.061,38.156a2.2,2.2,0,0,0,.272-1.058V32.854A28.5,28.5,0,0,1,43.8,4.383h8.734a2.012,2.012,0,0,1,2.216,2.19v10.95h4.38V6.573q.006-.187,0-.373A6.386,6.386,0,0,0,52.564,0Z" transform="translate(0 0)" fill="#fff"/></g><g transform="translate(35.044 65.702)"><path d="M225.432,320H201.341v4.38h24.091a2,2,0,0,1,2.19,2.19v4.139c-.315,1.307-2.427,9-8.76,9a2.19,2.19,0,0,0-2.19,2.19v13.14H175.06v-6.57h-4.38v8.76a2.19,2.19,0,0,0,2.19,2.19h45.992a2.19,2.19,0,0,0,2.19-2.19V343.9c6.846-1.294,10.109-8.517,10.907-12.51a2.178,2.178,0,0,0,.044-.438v-4.38q.006-.187,0-.374A6.386,6.386,0,0,0,225.432,320Z" transform="translate(-170.68 -320)" fill="#fff"/></g><g transform="translate(54.755 6.573)"><path d="M314.862,51.724H309.34a19.974,19.974,0,0,0-.795-1.912l3.907-3.907a2.19,2.19,0,0,0,0-3.1l-6.2-6.2a2.19,2.19,0,0,0-3.1,0l-3.907,3.907a20.272,20.272,0,0,0-1.912-.793V34.2a2.19,2.19,0,0,0-2.19-2.19h-8.76a2.19,2.19,0,0,0-2.19,2.19v5.523a19.488,19.488,0,0,0-3.43,1.6L283,45.1a15.328,15.328,0,0,1,3.942-1.632,2.19,2.19,0,0,0,1.643-2.12V36.393h4.38v4.954a2.19,2.19,0,0,0,1.638,2.122,15.327,15.327,0,0,1,3.942,1.632,2.19,2.19,0,0,0,2.663-.337l3.5-3.5,3.1,3.092-3.5,3.5a2.19,2.19,0,0,0-.339,2.663,15.333,15.333,0,0,1,1.636,3.942,2.19,2.19,0,0,0,2.118,1.643h4.954v4.378h-4.95a2.19,2.19,0,0,0-2.118,1.643,15.334,15.334,0,0,1-1.636,3.942,2.19,2.19,0,0,0,.339,2.663l3.5,3.5-3.1,3.1-3.5-3.5a2.19,2.19,0,0,0-2.663-.337,15.33,15.33,0,0,1-3.942,1.632,2.19,2.19,0,0,0-1.643,2.12v4.954h-4.38V75.243a2.19,2.19,0,0,0-1.643-2.12A15.33,15.33,0,0,1,283,71.492a2.19,2.19,0,0,0-2.663.337l-3.5,3.5-3.1-3.1,3.5-3.5a2.19,2.19,0,0,0,.339-2.663,15.333,15.333,0,0,1-1.636-3.942,2.19,2.19,0,0,0-2.118-1.643H266.68v4.38H272.2A19.958,19.958,0,0,0,273,66.776l-3.907,3.907a2.19,2.19,0,0,0,0,3.1l6.2,6.2a2.19,2.19,0,0,0,3.1,0l3.907-3.907a20.271,20.271,0,0,0,1.912.793v5.523a2.19,2.19,0,0,0,2.19,2.19h8.76a2.19,2.19,0,0,0,2.19-2.19V76.863a20.328,20.328,0,0,0,1.912-.793l3.907,3.9a2.19,2.19,0,0,0,3.1,0l6.2-6.2a2.19,2.19,0,0,0,0-3.1l-3.909-3.907a19.975,19.975,0,0,0,.8-1.912h5.523a2.19,2.19,0,0,0,2.19-2.19v-8.76A2.19,2.19,0,0,0,314.862,51.724Z" transform="translate(-266.68 -32.013)" fill="#fff"/></g><g transform="translate(70.085 24.094)"><path d="M350.106,117.347a8.76,8.76,0,1,0,8.76,8.76A8.76,8.76,0,0,0,350.106,117.347Zm0,13.14a4.38,4.38,0,1,1,4.38-4.38A4.38,4.38,0,0,1,350.106,130.487Z" transform="translate(-341.346 -117.347)" fill="#fff"/></g><g transform="translate(21.903 35.044)"><path d="M117.627,170.68v2.19h-6.57v-2.19h-4.38v2.19c0,.061,0,.121,0,.182a4.29,4.29,0,0,0,4.38,4.2h6.57c.061,0,.121,0,.182,0a4.29,4.29,0,0,0,4.2-4.38v-2.19Z" transform="translate(-106.676 -170.68)" fill="#fff"/></g><g transform="translate(54.755 61.325)"><path d="M273.25,298.68a6.57,6.57,0,1,0,6.57,6.57A6.57,6.57,0,0,0,273.25,298.68Zm0,8.76a2.19,2.19,0,1,1,2.19-2.19A2.19,2.19,0,0,1,273.25,307.44Z" transform="translate(-266.68 -298.68)" fill="#fff"/></g><g transform="translate(30.664 50.374)"><path d="M155.917,245.347a6.57,6.57,0,1,0,6.57,6.57A6.57,6.57,0,0,0,155.917,245.347Zm0,8.76a2.19,2.19,0,1,1,2.19-2.19A2.19,2.19,0,0,1,155.917,254.107Z" transform="translate(-149.347 -245.347)" fill="#fff"/></g><g transform="translate(50.375 15.333)"><path d="M251.917,74.68a6.57,6.57,0,1,0,6.57,6.57A6.57,6.57,0,0,0,251.917,74.68Zm0,8.76a2.19,2.19,0,1,1,2.19-2.19A2.19,2.19,0,0,1,251.917,83.44Z" transform="translate(-245.347 -74.68)" fill="#fff"/></g><g transform="translate(45.994 35.044)"><rect width="4.38" height="4.38" fill="#fff"/></g><g transform="translate(45.994 43.804)"><rect width="4.38" height="4.38" fill="#fff"/></g><g transform="translate(35.044 85.416)"><rect width="4.38" height="4.38" fill="#fff"/></g></svg>