<svg xmlns="http://www.w3.org/2000/svg" width="13.786" height="15.518" viewBox="0 0 13.786 15.518"><g transform="translate(30.002 31.56) rotate(180)"><path d="M46.313,44.767a.748.748,0,0,1-.555-1.247l5.858-6.512L45.758,30.5a.748.748,0,0,1,1.111-1l6.31,7.011a.752.752,0,0,1,0,1L46.87,44.52a.752.752,0,0,1-.556.247Z" transform="translate(-23.368 -13.207)" fill="#70ad3a"/><path d="M30.313,44.767a.748.748,0,0,1-.555-1.247l5.858-6.512L29.758,30.5a.748.748,0,1,1,1.111-1l6.31,7.011a.752.752,0,0,1,0,1L30.87,44.52A.752.752,0,0,1,30.313,44.767Z" transform="translate(-13.35 -13.207)" fill="#70ad3a"/></g></svg>