<svg xmlns="http://www.w3.org/2000/svg" width="52.652" height="52.652" viewBox="0 0 52.652 52.652"><g transform="translate(0 52.652) rotate(-90)"><path d="M46.662,52.012a1.1,1.1,0,0,1-.814-1.83l8.593-9.552-8.593-9.55a1.1,1.1,0,0,1,1.63-1.468L56.734,39.9a1.1,1.1,0,0,1,0,1.468L47.478,51.65a1.1,1.1,0,0,1-.816.362Z" transform="translate(-20.575 -13.207)" fill="#70ad3a"/><path d="M30.662,52.012a1.1,1.1,0,0,1-.814-1.83l8.593-9.552-8.593-9.55a1.1,1.1,0,1,1,1.63-1.468L40.734,39.9a1.1,1.1,0,0,1,0,1.468L31.478,51.65a1.1,1.1,0,0,1-.816.362Z" transform="translate(-13.35 -13.207)" fill="#70ad3a"/><path d="M26.326,2.194A24.132,24.132,0,1,1,2.194,26.326,24.162,24.162,0,0,1,26.326,2.194Zm0-2.194A26.326,26.326,0,1,0,52.652,26.326,26.327,26.327,0,0,0,26.326,0Z" fill="#70ad3a"/></g></svg>