<svg xmlns="http://www.w3.org/2000/svg" width="21.026" height="17.088" viewBox="0 0 21.026 17.088"><path d="M12.208,622.618a12.268,12.268,0,0,0,18.873-10.894,8.745,8.745,0,0,0,2.152-2.233,8.613,8.613,0,0,1-2.478.679,4.316,4.316,0,0,0,1.9-2.386,8.628,8.628,0,0,1-2.739,1.047,4.316,4.316,0,0,0-7.35,3.934,12.238,12.238,0,0,1-8.891-4.507,4.318,4.318,0,0,0,1.335,5.76,4.313,4.313,0,0,1-1.955-.54,4.319,4.319,0,0,0,3.46,4.285,4.319,4.319,0,0,1-1.947.073,4.318,4.318,0,0,0,4.029,3A8.673,8.673,0,0,1,12.208,622.618Z" transform="translate(-12.208 -607.469)" fill="#fff"/></svg>