<svg xmlns="http://www.w3.org/2000/svg" width="39.392" height="39.392" viewBox="0 0 39.392 39.392"><g transform="translate(39.392 39.392) rotate(180)"><path d="M.82,17.03a.821.821,0,0,1-.609-1.369L6.64,8.515.211,1.37A.821.821,0,0,1,1.43.272L8.355,7.967a.825.825,0,0,1,0,1.1L1.43,16.759a.825.825,0,0,1-.611.271Z" transform="translate(18.697 12.002)" fill="#70ad3a"/><path d="M.82,17.03a.821.821,0,0,1-.609-1.369L6.64,8.515.211,1.37A.821.821,0,1,1,1.43.272L8.355,7.967a.825.825,0,0,1,0,1.1L1.43,16.759a.825.825,0,0,1-.611.271Z" transform="translate(12.132 12.002)" fill="#70ad3a"/><path d="M19.7,1.641A18.055,18.055,0,1,1,1.641,19.7,18.077,18.077,0,0,1,19.7,1.641ZM19.7,0a19.7,19.7,0,1,0,19.7,19.7A19.7,19.7,0,0,0,19.7,0Z" transform="translate(0 0)" fill="#70ad3a"/></g></svg>