<svg xmlns="http://www.w3.org/2000/svg" width="19.294" height="14.828" viewBox="0 0 19.294 14.828"><path d="M-815.08-383.964l.233.142q4.61,2.836,9.217,5.675a.294.294,0,0,0,.364,0q4.606-2.842,9.217-5.675l.223-.136c0,.091.011.153.011.215q0,4.6,0,9.2a1.479,1.479,0,0,1-1.558,1.563q-8.074,0-16.149,0a1.478,1.478,0,0,1-1.558-1.562q0-4.6,0-9.2Z" transform="translate(815.085 387.805)" fill="#fff"/><path d="M-795.947-479.5c.1.289-.1.434-.347.587q-4.557,2.791-9.1,5.6a.284.284,0,0,1-.351.006q-4.639-2.865-9.286-5.717a.293.293,0,0,1-.178-.31c.023-.228,0-.462.04-.687a1.467,1.467,0,0,1,1.387-1.211c.085,0,.171,0,.257,0,5.3,0,10.6.012,15.895-.011A1.576,1.576,0,0,1-795.947-479.5Z" transform="translate(815.215 481.24)" fill="#fff"/></svg>