<svg xmlns="http://www.w3.org/2000/svg" width="42" height="42.001" viewBox="0 0 42 42.001"><path d="M21,42A21,21,0,0,1,6.151,6.15a21,21,0,0,1,29.7,29.7A20.862,20.862,0,0,1,21,42Zm-.36-32.838a9.127,9.127,0,0,0-8.709,6.366,9.212,9.212,0,0,0,.473,7c1.044,2.065,5.437,7.485,7.312,9.8a1.172,1.172,0,0,0,.923.447,1.225,1.225,0,0,0,.942-.447c2.282-2.815,6.27-7.831,7.338-9.8a8.779,8.779,0,0,0-.024-8.283A9.194,9.194,0,0,0,20.641,9.163Zm.022,14.067a4.8,4.8,0,1,1,4.8-4.8A4.7,4.7,0,0,1,24.087,21.8,4.786,4.786,0,0,1,20.663,23.23Z" transform="translate(0 0.001)" fill="#70ad3a"/></svg>